<svg version="1.2" xmlns="http://www.w3.org/2000/svg" viewBox="0 0 31 31" width="31" height="31"><defs><clipPath clipPathUnits="userSpaceOnUse" id="cp1"><path d="m-334-186h960v475h-960z" /></clipPath></defs><style>.s0{fill:#fa834f}.s1{fill:#cca332}.s2{fill:none;stroke:#cca332;stroke-linecap:round}</style><g clip-path="url(#cp1)"><path class="s0" d="m15.1 30.8c-8.3 0-15.1-6.8-15.1-15.1c0-8.4 6.8-15.1 15.1-15.1c8.4 0 15.1 6.7 15.1 15.1c0 8.3-6.7 15.1-15.1 15.1z" /><path class="s1" d="m7.5 13.9q-0.1-0.2-0.1-0.4c0-0.9 0.7-1.6 1.6-1.6c0.9 0 1.6 0.7 1.6 1.6q0 0.2-0.1 0.4z" /><path class="s1" d="m19.6 13.9q-0.1-0.2-0.1-0.4c0-0.9 0.7-1.6 1.6-1.6c0.9 0 1.6 0.7 1.6 1.6q0 0.2-0.1 0.4z" /><path class="s2" d="m9 19.5c0 0 4.9-5.5 12.8-1.1" /></g></svg>