<svg version="1.2" xmlns="http://www.w3.org/2000/svg" viewBox="0 0 31 31" width="31" height="31"><defs><clipPath clipPathUnits="userSpaceOnUse" id="cp1"><path d="m-424-186h960v475h-960z" /></clipPath></defs><style>.s0{fill:#9fd77a}.s1{fill:#7ba85e}.s2{fill:none;stroke:#7ba85e;stroke-linecap:round}</style><g clip-path="url(#cp1)"><path class="s0" d="m15.2 30.8c-8.4 0-15.1-6.8-15.1-15.1c0-8.4 6.7-15.1 15.1-15.1c8.3 0 15.1 6.7 15.1 15.1c0 8.3-6.8 15.1-15.1 15.1z" /><path class="s1" d="m21.3 15.1c-0.9 0-1.6-0.7-1.6-1.6c0-0.9 0.7-1.6 1.6-1.6c0.9 0 1.6 0.7 1.6 1.6c0 0.9-0.7 1.6-1.6 1.6z" /><path class="s1" d="m9.1 15.1c-0.9 0-1.6-0.7-1.6-1.6c0-0.9 0.7-1.6 1.6-1.6c0.8 0 1.5 0.7 1.5 1.6c0 0.9-0.7 1.6-1.5 1.6z" /><path class="s2" d="m9.1 17c0 0 5.3 5.5 12.2 0" /></g></svg>