<svg version="1.2" xmlns="http://www.w3.org/2000/svg" viewBox="0 0 194 3" width="194" height="3"><defs><clipPath clipPathUnits="userSpaceOnUse" id="cp1"><path d="m-297-234h960v475h-960z" /></clipPath></defs><style>.s0{fill:#fa5562}.s1{fill:#fa834f}.s2{fill:#fbcf3f}.s3{fill:#9fd77a}.s4{fill:#6bca6c}</style><g clip-path="url(#cp1)"><path class="s0" d="m2.3 1.4c0 0.4-0.3 0.8-0.8 0.8c-0.5 0-0.8-0.4-0.8-0.8c0-0.5 0.3-0.9 0.8-0.9c0.5 0 0.8 0.4 0.8 0.9z" /><path class="s0" d="m8.3 1.4c0 0.4-0.4 0.8-0.8 0.8c-0.5 0-0.9-0.4-0.9-0.8c0-0.5 0.4-0.9 0.9-0.9c0.4 0 0.8 0.4 0.8 0.9z" /><path class="s0" d="m14.3 1.4c0 0.4-0.4 0.8-0.8 0.8c-0.5 0-0.9-0.4-0.9-0.8c0-0.5 0.4-0.9 0.9-0.9c0.4 0 0.8 0.4 0.8 0.9z" /><path class="s0" d="m20.3 1.4c0 0.4-0.4 0.8-0.9 0.8c-0.4 0-0.8-0.4-0.8-0.8c0-0.5 0.4-0.9 0.8-0.9c0.5 0 0.9 0.4 0.9 0.9z" /><path class="s0" d="m26.2 1.4c0 0.4-0.3 0.8-0.8 0.8c-0.5 0-0.8-0.4-0.8-0.8c0-0.5 0.3-0.9 0.8-0.9c0.5 0 0.8 0.4 0.8 0.9z" /><path class="s1" d="m32.2 1.4c0 0.4-0.4 0.8-0.8 0.8c-0.5 0-0.9-0.4-0.9-0.8c0-0.5 0.4-0.9 0.9-0.9c0.4 0 0.8 0.4 0.8 0.9z" /><path class="s1" d="m38.2 1.4c0 0.4-0.4 0.8-0.8 0.8c-0.5 0-0.9-0.4-0.9-0.8c0-0.5 0.4-0.9 0.9-0.9c0.4 0 0.8 0.4 0.8 0.9z" /><path class="s1" d="m44.2 1.4c0 0.4-0.4 0.8-0.9 0.8c-0.4 0-0.8-0.4-0.8-0.8c0-0.5 0.4-0.9 0.8-0.9c0.5 0 0.9 0.4 0.9 0.9z" /><path class="s1" d="m50.1 1.4c0 0.4-0.3 0.8-0.8 0.8c-0.5 0-0.8-0.4-0.8-0.8c0-0.5 0.3-0.9 0.8-0.9c0.5 0 0.8 0.4 0.8 0.9z" /><path class="s1" d="m56.1 1.4c0 0.4-0.4 0.8-0.8 0.8c-0.5 0-0.9-0.4-0.9-0.8c0-0.5 0.4-0.9 0.9-0.9c0.4 0 0.8 0.4 0.8 0.9z" /><path class="s1" d="m62.1 1.4c0 0.4-0.4 0.8-0.8 0.8c-0.5 0-0.9-0.4-0.9-0.8c0-0.5 0.4-0.9 0.9-0.9c0.4 0 0.8 0.4 0.8 0.9z" /><path class="s1" d="m68.1 1.4c0 0.4-0.4 0.8-0.9 0.8c-0.4 0-0.8-0.4-0.8-0.8c0-0.5 0.4-0.9 0.8-0.9c0.5 0 0.9 0.4 0.9 0.9z" /><path class="s1" d="m74 1.4c0 0.4-0.3 0.8-0.8 0.8c-0.5 0-0.8-0.4-0.8-0.8c0-0.5 0.3-0.9 0.8-0.9c0.5 0 0.8 0.4 0.8 0.9z" /><path class="s2" d="m80 1.4c0 0.4-0.4 0.8-0.8 0.8c-0.5 0-0.9-0.4-0.9-0.8c0-0.5 0.4-0.9 0.9-0.9c0.4 0 0.8 0.4 0.8 0.9z" /><path class="s2" d="m86 1.4c0 0.4-0.4 0.8-0.8 0.8c-0.5 0-0.9-0.4-0.9-0.8c0-0.5 0.4-0.9 0.9-0.9c0.4 0 0.8 0.4 0.8 0.9z" /><path class="s2" d="m92 1.4c0 0.4-0.4 0.8-0.9 0.8c-0.4 0-0.8-0.4-0.8-0.8c0-0.5 0.4-0.9 0.8-0.9c0.5 0 0.9 0.4 0.9 0.9z" /><path class="s2" d="m97.9 1.4c0 0.4-0.3 0.8-0.8 0.8c-0.5 0-0.8-0.4-0.8-0.8c0-0.5 0.3-0.9 0.8-0.9c0.5 0 0.8 0.4 0.8 0.9z" /><path class="s2" d="m103.9 1.4c0 0.4-0.4 0.8-0.8 0.8c-0.5 0-0.9-0.4-0.9-0.8c0-0.5 0.4-0.9 0.9-0.9c0.4 0 0.8 0.4 0.8 0.9z" /><path class="s2" d="m109.9 1.4c0 0.4-0.4 0.8-0.8 0.8c-0.5 0-0.9-0.4-0.9-0.8c0-0.5 0.4-0.9 0.9-0.9c0.4 0 0.8 0.4 0.8 0.9z" /><path class="s2" d="m115.9 1.4c0 0.4-0.4 0.8-0.9 0.8c-0.4 0-0.8-0.4-0.8-0.8c0-0.5 0.4-0.9 0.8-0.9c0.5 0 0.9 0.4 0.9 0.9z" /><path class="s3" d="m121.8 1.4c0 0.4-0.3 0.8-0.8 0.8c-0.5 0-0.8-0.4-0.8-0.8c0-0.5 0.3-0.9 0.8-0.9c0.5 0 0.8 0.4 0.8 0.9z" /><path class="s3" d="m127.8 1.4c0 0.4-0.4 0.8-0.8 0.8c-0.5 0-0.9-0.4-0.9-0.8c0-0.5 0.4-0.9 0.9-0.9c0.4 0 0.8 0.4 0.8 0.9z" /><path class="s3" d="m133.8 1.4c0 0.4-0.4 0.8-0.8 0.8c-0.5 0-0.9-0.4-0.9-0.8c0-0.5 0.4-0.9 0.9-0.9c0.4 0 0.8 0.4 0.8 0.9z" /><path class="s3" d="m139.8 1.4c0 0.4-0.4 0.8-0.9 0.8c-0.4 0-0.8-0.4-0.8-0.8c0-0.5 0.4-0.9 0.8-0.9c0.5 0 0.9 0.4 0.9 0.9z" /><path class="s3" d="m145.7 1.4c0 0.4-0.3 0.8-0.8 0.8c-0.5 0-0.8-0.4-0.8-0.8c0-0.5 0.3-0.9 0.8-0.9c0.5 0 0.8 0.4 0.8 0.9z" /><path class="s3" d="m151.7 1.4c0 0.4-0.4 0.8-0.8 0.8c-0.5 0-0.9-0.4-0.9-0.8c0-0.5 0.4-0.9 0.9-0.9c0.4 0 0.8 0.4 0.8 0.9z" /><path class="s3" d="m157.7 1.4c0 0.4-0.4 0.8-0.8 0.8c-0.5 0-0.9-0.4-0.9-0.8c0-0.5 0.4-0.9 0.9-0.9c0.4 0 0.8 0.4 0.8 0.9z" /><path class="s3" d="m163.7 1.4c0 0.4-0.4 0.8-0.9 0.8c-0.4 0-0.8-0.4-0.8-0.8c0-0.5 0.4-0.9 0.8-0.9c0.5 0 0.9 0.4 0.9 0.9z" /><path class="s4" d="m169.6 1.4c0 0.4-0.3 0.8-0.8 0.8c-0.5 0-0.8-0.4-0.8-0.8c0-0.5 0.3-0.9 0.8-0.9c0.5 0 0.8 0.4 0.8 0.9z" /><path class="s4" d="m175.6 1.4c0 0.4-0.4 0.8-0.8 0.8c-0.5 0-0.9-0.4-0.9-0.8c0-0.5 0.4-0.9 0.9-0.9c0.4 0 0.8 0.4 0.8 0.9z" /><path class="s4" d="m181.6 1.4c0 0.4-0.4 0.8-0.8 0.8c-0.5 0-0.9-0.4-0.9-0.8c0-0.5 0.4-0.9 0.9-0.9c0.4 0 0.8 0.4 0.8 0.9z" /><path class="s4" d="m187.6 1.4c0 0.4-0.4 0.8-0.9 0.8c-0.4 0-0.8-0.4-0.8-0.8c0-0.5 0.4-0.9 0.8-0.9c0.5 0 0.9 0.4 0.9 0.9z" /><path class="s4" d="m193.5 1.4c0 0.4-0.3 0.8-0.8 0.8c-0.5 0-0.8-0.4-0.8-0.8c0-0.5 0.3-0.9 0.8-0.9c0.5 0 0.8 0.4 0.8 0.9z" /></g></svg>