<svg version="1.2" xmlns="http://www.w3.org/2000/svg" viewBox="0 0 31 31" width="31" height="31"><defs><clipPath clipPathUnits="userSpaceOnUse" id="cp1"><path d="m-379-186h960v475h-960z" /></clipPath></defs><style>.s0{fill:#fbcf3f}.s1{fill:#cca332}</style><g clip-path="url(#cp1)"><path class="s0" d="m15.2 30.8c-8.4 0-15.1-6.8-15.1-15.1c0-8.4 6.7-15.1 15.1-15.1c8.3 0 15 6.7 15 15.1c0 8.3-6.7 15.1-15 15.1z" /><path class="s1" d="m21.3 11.9c-0.9 0-1.6-0.7-1.6-1.5c0-0.9 0.7-1.6 1.6-1.6c0.9 0 1.6 0.7 1.6 1.6c0 0.8-0.7 1.5-1.6 1.5z" /><path class="s1" d="m19.6 22.6c-0.1 0-0.2-0.1-0.3-0.2c-0.1-1.2 0.3-2.5 1.1-3.4c0.2-0.2 0.3-0.4 0.3-0.6c0-0.2-0.1-0.3-0.3-0.4c-0.2-0.1-0.5-0.1-0.8-0.1c-2.8 0.1-5.6 0.8-8.1 2.1c-0.1 0.1-0.2 0-0.3-0.1c-0.1-0.1 0-0.3 0.1-0.3c2.6-1.4 5.4-2.1 8.3-2.2c0.4 0 0.7 0 1 0.1c0.3 0.2 0.7 0.5 0.6 0.9c0 0.4-0.2 0.7-0.4 0.9c-0.7 0.9-1 2-1 3c0.1 0.2 0 0.3-0.2 0.3q0 0 0 0z" /><path class="s1" d="m18.5 18q-0.1 0-0.2-0.1c0-0.1-0.7-1.2-0.2-2.1c0-0.1 0.2-0.2 0.3-0.1c0.1 0.1 0.2 0.2 0.1 0.4c-0.3 0.6 0.2 1.5 0.3 1.5c0 0.1 0 0.3-0.1 0.3q-0.1 0.1-0.2 0.1z" /><path class="s1" d="m10.6 9.9q0 0.2 0 0.5c0 0.8-0.7 1.5-1.5 1.5c-0.9 0-1.6-0.7-1.6-1.5q0-0.3 0-0.5z" /></g></svg>