<svg version="1.2" xmlns="http://www.w3.org/2000/svg" viewBox="0 0 31 31" width="31" height="31"><defs><clipPath clipPathUnits="userSpaceOnUse" id="cp1"><path d="m-469-186h960v475h-960z" /></clipPath></defs><style>.s0{fill:#6bca6c}.s1{fill:#417f41}.s2{fill:none;stroke:#417f41;stroke-linecap:round;stroke-width:1.4}</style><g clip-path="url(#cp1)"><path class="s0" d="m15.2 30.8c-8.3 0-15.1-6.8-15.1-15.1c0-8.4 6.8-15.1 15.1-15.1c8.4 0 15.1 6.7 15.1 15.1c0 8.3-6.7 15.1-15.1 15.1z" /><path class="s1" d="m4.3 15.7h21.8c0 0 1.4 10.3-10.7 10.3c0 0-11.1 0.7-11.1-10.3z" /><path class="s2" d="m6.8 11.9c0 0-0.6-3.6 2-3.6c2.7 0 2.3 3.6 2.3 3.6" /><path class="s2" d="m19.3 11.9c0 0-0.4-3.6 2.3-3.6c2.7 0 2.1 3.6 2.1 3.6" /></g></svg>