<svg version="1.2" xmlns="http://www.w3.org/2000/svg" viewBox="0 0 32 31" width="32" height="31"><defs><clipPath clipPathUnits="userSpaceOnUse" id="cp1"><path d="m-288-186h960v475h-960z" /></clipPath></defs><style>.s0{fill:#fa5562}.s1{fill:#cca332}</style><g clip-path="url(#cp1)"><path class="s0" d="m16.1 30.8c-8.4 0-15.1-6.8-15.1-15.1c0-8.4 6.7-15.1 15.1-15.1c8.3 0 15.1 6.7 15.1 15.1c0 8.3-6.8 15.1-15.1 15.1z" /><path class="s1" d="m8.6 19.1q0-0.2 0-0.4c0-0.9 0.7-1.6 1.6-1.6c0.8 0 1.5 0.7 1.5 1.6q0 0.2 0 0.4z" /><path class="s1" d="m20 19.1q-0.1-0.2-0.1-0.4c0-0.9 0.7-1.6 1.6-1.6c0.9 0 1.6 0.7 1.6 1.6q0 0.2-0.1 0.4z" /><path class="s1" d="m9.5 24.5q-0.1 0-0.2-0.1c-0.1-0.1 0-0.3 0.1-0.4c7-5.6 12.5 0 12.6 0.1c0.1 0.1 0 0.2-0.1 0.3c-0.1 0.1-0.2 0.1-0.3 0c-0.2-0.2-5.3-5.3-11.9 0q-0.1 0.1-0.2 0.1z" /></g></svg>