<svg version="1.2" xmlns="http://www.w3.org/2000/svg" viewBox="0 0 96 85" width="96" height="85"><defs><clipPath clipPathUnits="userSpaceOnUse" id="cp1"><path d="m-403-143h960v532h-960z" /></clipPath></defs><style>.s0{fill:none;stroke:#a7bcc2;stroke-width:4}.s1{fill:#a7bcc2}</style><g clip-path="url(#cp1)"><path class="s0" d="m10.9 10.2c9.4-9.4 24.4-9.4 33.9 0l3.3 3.4l3.3-3.4c9.5-9.4 24.5-9.4 33.9 0c9.4 9.5 9.4 24.5 0 33.9l-37.2 37.2l-37.2-37.2c-9.4-9.4-9.4-24.4 0-33.9z" /><path fill-rule="evenodd" class="s1" d="m38.6 45.1c-1.1-0.3-1.9-1.4-1.9-2.5v-2.8c0-1.5 1-2.9 2.4-3.4l1.7-3.9c0.7-1.7 2.3-2.7 4.2-2.7h5.4c1.9 0 3.5 1 4.2 2.7l1.7 3.9c1.4 0.6 2.4 1.9 2.4 3.4v2.8c0 1.1-0.8 2.2-1.9 2.5v3c0 1-0.8 1.8-1.8 1.8h-1.8c-1 0-1.8-0.8-1.8-1.8v-2.8h-7.4v2.8c0 1-0.8 1.8-1.8 1.8h-1.8c-1 0-1.8-0.8-1.8-1.8zm3.6 0.1h-1.8v2.8h1.8zm12.8 0h-1.8v2.7h1.8zm-13.8-9.1h13l-1.2-2.9c-0.5-1.1-1.5-1.7-2.6-1.7h-5.4c-1.1 0-2.1 0.6-2.6 1.7zm-2.6 3.6h3.7c0.5 0 0.9 0.4 0.9 0.9c0 0.5-0.4 0.9-0.9 0.9h-3.7v1c0 0.5 0.4 0.9 0.9 0.9h16.5c0.5 0 0.9-0.4 0.9-0.9v-1h-3.7c-0.5 0-0.9-0.4-0.9-0.9c0-0.5 0.4-0.9 0.9-0.9h3.7c0-1-0.8-1.8-1.8-1.8h-14.7c-1 0-1.8 0.8-1.8 1.8z" /><path class="s1" d="m45 33.2c0-0.5 0.4-0.9 0.9-0.9h3.6c0.5 0 0.9 0.4 0.9 0.9c0 0.5-0.4 1-0.9 1h-3.6c-0.5 0-0.9-0.5-0.9-1z" /></g></svg>