<svg version="1.2" xmlns="http://www.w3.org/2000/svg" viewBox="0 0 223 181" width="223" height="181"><defs><clipPath clipPathUnits="userSpaceOnUse" id="cp1"><path d="m-659-125h960v475h-960z" /></clipPath></defs><style>.s0{fill:#bcd3da}.s1{fill:#fca0a0}.s2{fill:#838383}.s3{fill:#0a3442}.s4{fill:#185b71}.s5{fill:#607edb}.s6{fill:#f18c8c}.s7{fill:#fbb040}.s8{fill:#f1940a}.s9{fill:#ffffff}.s10{fill:#000000}.s11{fill:#2c2858}.s12{fill:#f37a50}.s13{fill:#f2f2f2}.s14{fill:#fd968e}.s15{fill:#fd7166}.s16{fill:#ffffff;stroke:#c9dde3}.s17{fill:#f9be66}.s18{fill:#ff6d6d}.s19{fill:#b5d2db}</style><g clip-path="url(#cp1)"><path class="s0" d="m209.3 180.6h-190.2c-0.6 0-1.1-1-1.1-2.2c0-1.2 0.5-2.2 1.1-2.2h190.2c0.6 0 1.1 1 1.1 2.2c0 1.2-0.5 2.2-1.1 2.2z" /><path class="s1" d="m128.6 69.3l0.4-2.7c0 0-1.9-0.3-1.8-1.6h2c0 0 1-0.9-0.2-3.9c-0.3-2.7 1.5-1.3 1.8-2.2c0.4-1.3 2.7 1.3 2.7 4c0.1 3.5-1.8 6.4-1.8 6.4z" /><path class="s1" d="m76.6 99c0 0-3.4-0.7-5.8-3.2c-1.9-2-1.8-4.4-0.5-4.9c0.6-0.3 2.1-0.3 2.9 1.1c1 1.3 1.7 2 1.9 2c1.1-0.1-0.4-1.9 0.1-2c1.9-0.2 1.8 3.1 1.8 3.1l1.8 1.6z" /><path class="s2" d="m103 174.3c0.2 1 0.4 3.7 0.4 4.9c0 0-4-0.1-13.8 0c-0.2-5 6.2-2.8 8.8-6.4z" /><path class="s2" d="m117.6 174.3c0.2 1.1 0.4 3.8 0.4 5c0 0-4.1-0.1-13.8 0c-0.2-5 6.2-2.8 8.8-6.4z" /><path class="s3" d="m106.5 118.5c0 0-4.4 19.4-5.8 27.9c3.4 8.8 2.7 28.3 2.7 28.3c0 0-4.6 0.8-7.8 0c0.3-17.3-2-24-2.6-29.2c-0.7-5.3 0.9-28.8 0.9-28.8z" /><path class="s3" d="m112.4 117.5c0 0-1 22.4-0.8 31c5.1 5 6.7 26.6 6.7 26.6c0 0-4.6-0.2-7.8-0.4c-2.9-17-5.5-20.9-7.1-25.9c-1.6-5-4.8-31.4-4.8-31.4z" /><path class="s4" d="m111 85.6c0 0 0.2 0.2 13.4-2.1q0 0 0 0l4.6 4q0 0 0 0c-3.4 3.9-18.4 6.2-18.4 6.2z" /><path class="s5" d="m100.9 88.5l-4.8-5.6l4.6-0.9l4.7 0.7z" /><path class="s6" d="m103.7 85.4c-1.9 1.5-3.8 2.1-5.8 0.6l-0.3-7.1l6-0.1z" /><path class="s4" d="m94.8 85.4l1.4-0.5l-0.1-2l3.7 3.4l1 0.2l1.1-0.3l3.5-3.5v2l1.2 0.3l5.1 0.7v22.6l1.9 10.5c-6 1.5-14.8 1.6-21.2 0.3l1.1-9.5l-2.2-22.9z" /><path class="s7" d="m100.6 89c0 0 0.7 13.9 1.7 21c-0.3 0.4-1.9 2.2-1.9 2.2c0 0-1.8-1.8-2.3-2.1c-1.1-12.5 0.9-21 0.9-21z" /><path class="s8" d="m100.7 89.1h-1.7l-0.6-2.4l1.4-0.6l2 0.5z" /><path class="s9" d="m105.4 82.7l1.1 2.4l-3.7 3.9c-1.4-0.8-3-2.9-3-2.9z" /><path class="s9" d="m99.8 86.1c0 0-1.2 1.8-2.8 3l-2.9-3.6l2-2.6z" /><path class="s4" d="m129.3 87.3c-1.3 2.1-4.2 2.6-5.4 0c-1.4-3.1 0.9-7.5 3.6-19c1.5-0.1 2.6 0.1 4.7 0.6c-0.6 5.4-1.3 15.6-2.9 18.4z" /><path class="s4" d="m92.4 97.2c0 0-1.7 11.5-4.9 12.5c-3.4 1-12.4-10-12.4-10l3.5-4.8l6.1 6.5c0 0 3.6-14.6 6.7-14.8z" /><path class="s3" d="m97.1 78.6c-1.1-0.3-2.2-0.7-3.2-1.3c-0.6-0.4-0.6-2.3-1.3-2.4c0 0-0.7 0-1.4-0.5c-1.1-0.6-1.5-2.1-1.2-3.2c0.3-1.6 2.1-2.2 2.1-2.2c-0.6-0.7-1.2-2.5-0.3-4c1-1.6 3.2-1.6 3.2-1.6c0.4-3.5 3.6-2.1 5.2-2.5c1.3-0.3 2.1-2.2 5.1-1.5c2.6 0.6 2.7 3.1 2.7 3.1c4.1 0.2 3.2 3.4 3.3 4.7c0.2 1.7 1.6 1.6 1.9 3c0.4 1.6-0.8 2.6-1.6 2.8c0 0 0.3 1.8-1.5 2.1c0 0-1.6 3.8-4.6 3.5z" /><path class="s1" d="m101.4 63.6c3.8 0.2 6.9 3.5 6.5 8.6c-0.3 5.2-3.7 9.1-7.5 8.9c-3.8-0.3-6.6-4.7-6.3-9.8c0.3-5.1 3.5-8 7.3-7.7z" /><path class="s10" d="m103.1 73.2c0-0.4 0.4-0.7 0.8-0.7c0.4 0 0.7 0.4 0.7 0.8c-0.1 0.4-0.4 0.7-0.8 0.7c-0.4-0.1-0.7-0.4-0.7-0.8z" /><path class="s10" d="m97.2 72.8c0.1-0.4 0.4-0.7 0.8-0.7c0.4 0 0.7 0.4 0.7 0.8c0 0.4-0.4 0.7-0.8 0.7c-0.4-0.1-0.7-0.4-0.7-0.8z" /><path class="s11" d="m96.6 72c-0.2-0.1-0.2-0.3-0.1-0.5q0.4-0.7 1.1-0.8c0.8-0.1 1.4 0.4 1.4 0.4c0.2 0.2 0.2 0.4 0.1 0.5c-0.1 0.2-0.4 0.2-0.5 0.1c0 0-0.4-0.3-0.9-0.3q-0.3 0.1-0.7 0.5q-0.1 0.2-0.3 0.2q-0.1 0-0.1-0.1z" /><path class="s11" d="m105 72.5q-0.5-0.6-1-0.7c-0.4-0.1-0.7 0.2-0.7 0.2c-0.1 0.1-0.4 0.1-0.5-0.1c-0.1-0.1-0.1-0.4 0.1-0.5c0 0 0.5-0.4 1.2-0.3q0.8 0.1 1.5 1c0.1 0.2 0 0.4-0.1 0.5q-0.1 0.1-0.2 0.1q-0.2 0-0.3-0.2z" /><path class="s6" d="m99.3 75.2c0 0 0.1 0.6 1 1.1c-0.4 0.1-1.7-0.4-1.9-1.3c0.4-0.2 0.7-0.4 1.7-1.1z" /><path class="s1" d="m109.4 72.1c0.8 0.6 0.8 1.8 0.1 2.9c-0.7 1.1-1.9 1.5-2.7 1c-0.8-0.6-0.8-1.8-0.1-2.9c0.7-1.1 1.9-1.5 2.7-1z" /><path class="s6" d="m107.2 74.9c-0.3-0.7-0.1-1.1 0.1-1.3c0.4-0.5 1.1-0.7 1.7-0.6c0.1 0 0.2 0.1 0.2 0.3c0 0.1-0.1 0.2-0.2 0.2c-0.5-0.1-1.1 0-1.3 0.3q-0.3 0.4-0.1 1c0.1 0.1 0 0.3-0.1 0.3q-0.1 0-0.1 0q-0.2 0-0.2-0.2z" /><path class="s9" d="m100.7 78.8c-1.3 0.1-2.1-0.7-2.4-1.2c-0.2-0.1 0-0.4 0.2-0.3c0.5 0 1.3 0.1 2.1 0.1c0.8-0.1 1.7-0.2 2.2-0.2c0.2-0.1 0.3 0.2 0.2 0.3c-0.3 0.5-1.1 1.3-2.3 1.3z" /><path class="s3" d="m107.9 72c-0.7 0.1-0.4-1.1-1.6-1.2c-1-0.1-2 0.2-2.7-1.2c-0.9-1.9-2.8-0.6-2.8-0.6c-2.3-1.3-2.7 0.1-3.7 1c-1 0.8-2.9-0.2-3.2 2.9l-1-6.7l9.3-4.4l8.1 6.8z" /><path class="s7" d="m138.1 53c1.6 4.9-1.2 10.2-6.1 11.8c-4.9 1.5-10.2-1.2-11.8-6.1c-1.5-4.9 1.2-10.2 6.1-11.8c4.9-1.5 10.2 1.2 11.8 6.1z" /><path class="s9" d="m124.4 54.3c0.8-0.3 1.7 0.2 1.9 1c0.3 0.8-0.2 1.7-1 2c-0.8 0.3-1.7-0.2-2-1c-0.2-0.8 0.2-1.7 1.1-2z" /><path class="s9" d="m132 51.8c0.8-0.2 1.7 0.2 2 1.1c0.2 0.8-0.2 1.7-1 1.9c-0.9 0.3-1.8-0.1-2-1c-0.3-0.8 0.2-1.7 1-2z" /><path class="s9" d="m126.8 59.6c0.8 0.7 2.2 1 3.5 0.6c1.2-0.4 2.2-1.4 2.4-2.4c0-0.3 0.4-0.6 0.8-0.6c0.4 0 0.6 0.3 0.6 0.6c-0.3 1.5-1.7 2.8-3.5 3.4c-1.9 0.6-3.8 0.3-4.9-0.9c-0.2-0.2-0.2-0.5 0.2-0.8q0.1 0 0.2-0.1c0.3-0.1 0.6 0 0.7 0.2z" /><path class="s12" d="m127.2 65.2c-0.1-0.6 0.3-2 0.9-2.3c0.6-0.3 0.6 0.6 0.7 1.3c0 0.8 0.3 0.8 0.8 1c0 0-1.7 0.4-2.4 0z" /><path class="s3" d="m42.8 90.8c-3.2-1.1-9.9-4.5-6.7-9.1c3.1-4.6 4.5-2.7 3.3-8.2c-1.3-5.5 2.6-9.9 6.4-8.8c3.7 1 4.7 4.1 9.3 3.3c4.6-0.9 8.5 3.4 6.8 7.1c-1.7 3.8-2.4 5.6-0.8 7.6c1.6 2.1 9 4.2 6 9.2c-3 4.9-4.4 4.7-3.3 7.2c1.1 2.5-1.3 5.4-5.6 5.1c-4.2-0.4-8-1.9-9.6-6.6c-1.6-4.7-5.8-6.8-5.8-6.8z" /><path class="s13" d="m49.9 171.2l0.3 2.6l-2.3 0.7l-1.8-1.9l-0.3-1.1z" /><path class="s1" d="m52.3 116.8c0 0-4.1 23.8-5.7 30.8c3.1 3.6 2.9 9.5 3.1 16.6c0.2 5.6 0.2 7.3 0.2 7.3h-4.1c0 0-4.6-14-5.5-23.4c-0.9-9.4 2.5-31.3 2.5-31.3z" /><path class="s1" d="m59.5 123.8c0 0-1 16.6-2 23c5.8-0.8 10.8 5.9 16.6 9.7c0 0-1.1 3.8-1.3 3.7c-5.2-2-12.9-4.8-21.4-10.6c-3.3-8.9-4.4-29-4.4-29z" /><path class="s6" d="m51.5 84.8v8.2c0 0-2.7 1.5-5.1 0c0.4-1.8 0.6-7.7 0.6-7.7z" /><path class="s14" d="m58.5 96.2c0.2 3.2-2.7 7.6-3.1 17.4c-5.4 1.6-13.8 3.5-13.8 3.5c0 0-0.6-12.9-1-17.6c-0.3-4.7 2.1-10.3 2.1-10.3h13.8c0 0 1.8 3.9 2 7z" /><path class="s1" d="m49.1 69.1c3.5 0 6.3 3.8 6.3 8.4c0 4.6-2.8 8.4-6.3 8.4c-3.4 0-6.2-3.8-6.2-8.4c0-4.6 2.8-8.4 6.2-8.4z" /><path class="s3" d="m55.8 77.5c-3.5-0.4-6.7-2.4-8.5-4.8c-1.2 2.9-4.4 4.8-4.4 4.8c0 0-2.5-5.5 2-8.5c4.2-2.9 14.4-0.9 10.9 8.5z" /><path class="s10" d="m51.1 78.6c0-0.3 0.3-0.6 0.6-0.6c0.4 0 0.7 0.3 0.7 0.6c0 0.4-0.3 0.7-0.7 0.7c-0.3 0-0.6-0.3-0.6-0.7z" /><path class="s10" d="m45.8 78.6c0-0.3 0.3-0.6 0.6-0.6c0.4 0 0.7 0.3 0.7 0.6c0 0.4-0.3 0.7-0.7 0.7c-0.3 0-0.6-0.3-0.6-0.7z" /><path class="s11" d="m45.1 78c-0.1-0.1-0.2-0.3-0.1-0.4q0.4-0.7 1-0.8c0.7-0.2 1.3 0.2 1.3 0.2c0.1 0.1 0.2 0.3 0.1 0.5c-0.1 0.1-0.3 0.2-0.5 0.1c0 0-0.4-0.3-0.8-0.2q-0.3 0.1-0.6 0.5q-0.1 0.1-0.2 0.1q-0.1 0-0.2 0z" /><path class="s11" d="m52.7 77.9q-0.4-0.5-0.9-0.6c-0.3 0-0.6 0.2-0.6 0.2c-0.1 0.2-0.3 0.1-0.5 0c-0.1-0.1-0.1-0.3 0.1-0.4c0-0.1 0.4-0.4 1.1-0.4q0.7 0.1 1.3 0.9c0.2 0.1 0.1 0.3 0 0.4q-0.1 0.1-0.2 0.1q-0.2 0-0.3-0.2z" /><path class="s6" d="m47.8 80.7c0 0 0.1 0.5 1 0.9c-0.4 0.1-1.6-0.2-1.8-1c0.3-0.2 0.6-0.5 1.4-1.1z" /><path class="s1" d="m56.9 77.5c0.7 0.5 0.7 1.7 0 2.6c-0.8 0.9-1.9 1.2-2.6 0.7c-0.6-0.6-0.6-1.7 0.1-2.6c0.7-1 1.9-1.3 2.5-0.7z" /><path class="s6" d="m54.9 80c-0.3-0.6-0.2-1 0-1.3c0.3-0.4 1-0.6 1.5-0.6c0.1 0 0.2 0.1 0.2 0.2c0 0.2-0.1 0.2-0.2 0.2c-0.4 0-0.9 0.1-1.2 0.5q-0.2 0.3 0 0.8c0.1 0.1 0 0.3-0.1 0.3q0 0 0 0q-0.2 0-0.2-0.1z" /><path class="s9" d="m48.9 84c-1.1 0.1-1.8-0.5-2.1-0.9c-0.1-0.1 0-0.3 0.1-0.3c0.5 0 1.2 0 1.9 0c0.6-0.1 1.3-0.2 1.8-0.3c0.1 0 0.3 0.1 0.2 0.3c-0.3 0.4-0.9 1.1-1.9 1.2z" /><path class="s3" d="m49.7 173.9l0.5-0.1c0.2 0.9 0.3 3.2 0.4 4.2c0 0-3.7-0.1-12.3 0c-0.2-4.2 5.5-2.3 7.8-5.4c0 0 1.2 0.2 1.8 1.6z" /><path class="s3" d="m38.3 178.3v-0.4h12.3v0.4c0 0.5-0.4 0.8-0.8 0.8h-10.8c-0.4 0-0.7-0.3-0.7-0.8z" /><path class="s3" d="m73.7 156.2l3 1.6l-0.4 2.2l-2.5 0.7l-1.1-0.6z" /><path class="s3" d="m76.6 158.2l0.1-0.4c0.9 0.2 2.9 1.1 3.8 1.5c0 0-1.7 3.1-5.6 10.6c-3.7-1.8 0.5-5.8-1.1-9.2c0 0 0.7-1 2.2-0.8z" /><path class="s3" d="m75.4 170.1l-0.6-0.3l5.6-10.6l0.6 0.4c0.2 0.1 0.3 0.4 0.2 0.6l-5.1 9.7c-0.1 0.3-0.4 0.4-0.7 0.2z" /><path class="s3" d="m44.7 142c-4.6-0.4-8-1.9-9.2-2.5c3.1-5.3 1.2-18.3 6.3-27h14.4c5.7 6.4 5.4 25 6.3 28c-1.4 0-3.8 0-6.4 0.5c-4.2 0.7-6.5 1.5-11.4 1z" /><path class="s15" d="m51.5 89.2l3.5-0.3c0 0 4.3-9.1 6-12.1c1.1-4.7-0.5-17.3-0.5-17.3l5.1-1.1c0 0 2.3 15.2 1.5 19.6c-0.2 1.1-6.5 14.5-6.5 14.5c0 0-2.1 3.7 0.8 22.6c-4.1 1-7 1.1-7 1.1z" /><path class="s15" d="m46.8 89.2l-2.7 27c0 0-1.2 0.4-5.8-1c2.2-11.2 1.6-18.1 1.2-20.3q-0.1-0.7-0.4-1.3c-0.9-1.8-4.1-8-7.1-16.1c0.2-3.8 2.9-19.1 2.9-19.1l4.8-0.3l-1.4 18.1c0 0 5 11.1 5.7 13z" /><path class="s16" d="m90.8 46.3c0 7.8-6.3 14.1-14 14.1h-54.3c-7.8 0-14.1-6.3-14.1-14.1c0-7.8 6.3-14.1 14.1-14.1h54.3c7.7 0 14 6.3 14 14.1z" /><path class="s17" d="m76.2 52.2l0.9-4.2l-3.2-2.8c-0.3-0.2-0.2-0.8 0.2-0.8l4.3-0.4l1.7-3.9c0.1-0.4 0.7-0.4 0.8 0l1.7 3.9l4.3 0.4c0.4 0 0.6 0.5 0.3 0.8l-3.3 2.8l1 4.2c0.1 0.4-0.3 0.7-0.7 0.5l-3.7-2.2l-3.6 2.2c-0.4 0.2-0.8-0.1-0.7-0.5z" /><path class="s17" d="m60.7 52.2l1-4.2l-3.3-2.8c-0.3-0.2-0.1-0.8 0.3-0.8l4.3-0.4l1.6-3.9c0.2-0.4 0.7-0.4 0.9 0l1.7 3.9l4.2 0.4c0.5 0 0.6 0.5 0.3 0.8l-3.2 2.8l1 4.2c0.1 0.4-0.4 0.7-0.7 0.5l-3.7-2.2l-3.7 2.2c-0.3 0.2-0.8-0.1-0.7-0.5z" /><path class="s17" d="m45.3 52.2l0.9-4.2l-3.2-2.8c-0.3-0.2-0.2-0.8 0.3-0.8l4.2-0.4l1.7-3.9c0.1-0.4 0.7-0.4 0.8 0l1.7 3.9l4.3 0.4c0.4 0 0.6 0.5 0.3 0.8l-3.2 2.8l0.9 4.2c0.1 0.4-0.3 0.7-0.7 0.5l-3.7-2.2l-3.6 2.2c-0.4 0.2-0.8-0.1-0.7-0.5z" /><path class="s17" d="m29.8 52.2l1-4.2l-3.3-2.8c-0.3-0.2-0.1-0.8 0.3-0.8l4.3-0.4l1.6-3.9c0.2-0.4 0.7-0.4 0.9 0l1.7 3.9l4.2 0.4c0.5 0 0.6 0.5 0.3 0.8l-3.2 2.8l1 4.2c0.1 0.4-0.4 0.7-0.7 0.5l-3.7-2.2l-3.7 2.2c-0.3 0.2-0.8-0.1-0.7-0.5z" /><path class="s17" d="m14.4 52.2l0.9-4.2l-3.2-2.8c-0.3-0.2-0.2-0.8 0.3-0.8l4.2-0.4l1.7-3.9c0.1-0.4 0.7-0.4 0.9 0l1.6 3.9l4.3 0.4c0.4 0 0.6 0.5 0.3 0.8l-3.2 2.8l0.9 4.2c0.1 0.4-0.3 0.7-0.7 0.5l-3.7-2.2l-3.6 2.2c-0.4 0.2-0.8-0.1-0.7-0.5z" /><path class="s3" d="m189 90.9c-1.6 12.3-8.2 13.8-8.2 13.8c0 0-14.3 1.5-15.7-18.3c-1.4-19.9 9.7-23.3 14.9-21.3c8.8 3.4 10.7 13.4 9 25.8z" /><path class="s1" d="m159.8 83.7c-0.5 1.3-4.4 2-4.7 1.6c-2.1-5.3 0.1-15.9 0.1-15.9l2-0.9c0 0 0.7 8.2 2.6 15.2z" /><path class="s1" d="m169.6 94.2c-3.7-1.2-14.1-7.8-14.6-9.1l4.4-2.3c0 0 11.9 5.3 13.8 6.2c3.3 1.7 2.4 7.1-3.6 5.2z" /><path class="s1" d="m146.5 65.7c-0.5-0.7 1.3-0.9 2.1-0.5c3.3 1.9 4.7 0.7 3 0.2c-1.4-0.4-1-1.2-0.9-1.3c0.1-0.1 0.5 0 1.5 0.3c0.3 0 3.8 1.4 5 4.1l-1.9 1.6c-0.5-0.8-1.6-0.6-2.5-0.8c-4-0.9-5.7-2.8-6.3-3.6z" /><path class="s6" d="m172.5 86.5l5-0.9l1.8 2.5l-3.9 8l-5.8-4.9z" /><path class="s4" d="m166.5 105.6c0-3.1-2.8-7.9-1.4-11c0.9-2.6 2.5-6.9 4.4-7.6c1-0.3 2-0.6 3.2-0.9l-0.2 0.4c0 0.6 0.1 1.7 1.1 1.8c2.5 0.2 3.9-3.1 3.9-3.1c1.4-0.1 7.8 2 7.8 2.5c0 4.1-3.3 10.1-4.4 14.6c-0.5 4.8 0.6 7.4 0.6 7.9c0 0-9.1 3.1-15.3-0.3c0 0 0.3-2.2 0.3-4.3z" /><path class="s6" d="m173.8 82.5l4-0.6l-0.3 3.7c0 0-1.7 2.3-2.6 2.5l-2.4-1.6z" /><path class="s1" d="m181.5 77.1c-1 4.3-4.6 7.2-8 6.3c-3.4-0.8-5.3-4.9-4.3-9.3c1-4.3 4.6-7.2 8-6.3c3.4 0.8 5.4 4.9 4.3 9.3z" /><path class="s10" d="m170.8 75.3c-0.2 0.3-0.5 0.4-0.8 0.2c-0.3-0.1-0.4-0.5-0.3-0.8c0.2-0.3 0.5-0.4 0.8-0.3c0.3 0.2 0.4 0.6 0.3 0.9z" /><path class="s10" d="m175.6 76.4c-0.2 0.4-0.6 0.5-0.9 0.3c-0.3-0.1-0.5-0.5-0.3-0.8c0.2-0.4 0.6-0.5 0.9-0.3c0.3 0.1 0.4 0.5 0.3 0.8z" /><path class="s11" d="m176.3 75.9q-0.1 0-0.1-0.1c-0.3-0.7-1.2-0.9-1.2-0.9c-0.2 0-0.2-0.1-0.2-0.2c0-0.2 0.1-0.2 0.2-0.2c0.1 0 1.2 0.2 1.6 1.1c0.1 0.1 0 0.2-0.1 0.3q-0.1 0-0.2 0z" /><path class="s11" d="m169.5 74.4q-0.1 0-0.1-0.1c-0.1-0.1-0.1-0.2 0-0.3c0.7-0.7 1.6-0.4 1.6-0.4c0.1 0.1 0.2 0.2 0.1 0.3c0 0.1-0.1 0.2-0.2 0.2c-0.1-0.1-0.7-0.2-1.2 0.2q-0.1 0.1-0.2 0.1z" /><path class="s6" d="m171.4 76.7c-0.2 0.3-0.4 0.7-0.4 0.9q-0.1 0.1 0 0.2c0 0.2 0.2 0.5 0.7 0.9c0.1 0.1 0 0.2-0.1 0.1c-0.4-0.2-1.2-0.5-1.4-1c-0.1-0.1-0.1-0.3 0-0.3c0.4-0.2 0.7-0.6 1-0.9c0.1-0.1 0.2 0 0.2 0.1z" /><path class="s1" d="m182.3 77.2c0.6 0.6 0.3 1.7-0.5 2.3c-0.8 0.7-1.9 0.7-2.5 0c-0.5-0.7-0.2-1.8 0.6-2.4c0.8-0.6 1.9-0.6 2.4 0.1z" /><path class="s6" d="m180.4 79.3q-0.1 0-0.1-0.1c-0.3-0.4-0.4-0.9-0.1-1.2c0.3-0.4 0.8-0.6 1.2-0.5c0.1 0.1 0.2 0.2 0.1 0.3c0 0.2-0.1 0.2-0.2 0.2c-0.3-0.1-0.6 0-0.7 0.2q-0.3 0.3 0 0.8c0.1 0.1 0.1 0.2 0 0.3q-0.1 0.1-0.2 0z" /><path class="s9" d="m173.1 81c-1 0-1.6-0.6-1.9-1c-0.1-0.1 0-0.3 0.1-0.3c0.4 0.1 1.1 0.2 1.8 0.2c0.6 0 1.3-0.1 1.7-0.2c0.1 0 0.2 0.2 0.1 0.3c-0.2 0.4-0.9 1-1.8 1z" /><path class="s3" d="m181.6 76.7c-4.1-0.6-9.7-4.7-10.2-6.8c0.8-2.6 5-3.8 7.3-2.7c2.4 1.2 4.6 6.3 2.9 9.5z" /><path class="s1" d="m170 166.9c0.3-2.7-1.1-23.1-1.1-23.1c-3.9-17.9-2.4-30.8-2.4-30.8l6.8 0.5l2.6 10.1l-1.2 17c0 0 0.4 1.3 0.7 2.3c1.3 5.7 0 12.4-0.8 16.9c-0.4 2.1-1 6.5-1.1 7.5l1.7 2.2c0 0-6.1 6.8-7 6.8c-1.8 0.1-1.3-1.7-1.3-1.7c2.5-2.6 3-6.9 3.1-7.7z" /><path class="s3" d="m175.3 171.9l-0.3 4.3l-0.8 0.1l-0.4-4.1c-2.1 0.6-3.5 4.3-3.5 4.3c-1.5 0.6-5.1 0.9-6.4 0.2c-0.3-1.2 3-2.1 3-2.1c0.3 0.3 2.1 0.6 2.7 0.2c2.3-2 3.5-4.8 3.9-7.5c0 0 3.7 0.3 1.8 4.6z" /><path class="s1" d="m172.3 114.3l9.5-1.3c3.6 8.2 4.8 22.5 5.8 27.6c3.9 6.6 5.2 26.7 5.2 26.7l1.7 2.2c0 0-6.1 6.8-7.1 6.8c-1.8 0.1-1.3-1.7-1.3-1.7c2.5-2.6 3-6 3.2-6.8c0.2-1.1-7.7-23.4-7.7-23.4l-0.8-2.1c-9.7-16-11.3-28.1-11.3-28.1z" /><path class="s3" d="m194.6 171.9l-0.4 4.3l-0.7 0.1l-0.4-4.1c-2.1 0.6-3.6 4.3-3.6 4.3c-1.4 0.6-5.1 0.9-6.4 0.2c-0.3-1.2 3-2.1 3-2.1c0.3 0.3 2.1 0.6 2.7 0.2c2.4-2 3.5-4.8 4-7.5c0 0 3.6 0.3 1.8 4.6z" /><path class="s4" d="m165.7 140.1c-1.2-11.6-2.4-25.6 1-30.9l14.3-1.2c8.4 6.2 8 28.5 8.9 31.6c-12.1 3.8-17.5 2.9-24.2 0.5z" /><path class="s1" d="m141.9 86c-0.7-0.7 1-1.1 1.9-0.8c3.6 1.4 4.8-0.1 3-0.3c-1.4-0.1-1.1-1-1.1-1.1c0.1-0.2 0.6-0.1 1.5 0c0.4 0 4 0.9 5.6 3.4l-1.6 1.8c-0.6-0.7-1.7-0.4-2.6-0.4c-4.1-0.3-6.1-1.9-6.7-2.6z" /><path class="s1" d="m167.1 94c0.9 1.2-1.1 5.3-1.6 5.3c-6.3-1.6-14.5-10.5-14.5-10.5l0.5-2.4c0 0 7.9 4.7 15.6 7.6z" /><path class="s1" d="m184 94.2c-3.8 2.1-17.2 5.7-18.6 5l1.4-5.3c0 0 13.4-5.8 15.7-6.7c3.9-1.4 7.7 3.5 1.5 7z" /><path class="s18" d="m135 17.5c1.6-7.9 8.6-5.3 9.7-1.1c1.6 4.6-2.2 14.1-2.6 13.7c-21.2-2.5-14.7-16.5-7.1-12.6z" /><path class="s18" d="m160.2 36.6c5.1-1.5 5.7 3.5 3.5 5.5c-2.3 2.3-9.1 2.8-9 2.4c-4.8-13.4 5.5-13.7 5.5-7.9z" /><path class="s3" d="m150.1 83.9q-0.2 0-0.3 0c-0.8-0.4-1.9-1-3.3-1.9c-0.3-0.2-0.4-0.6-0.2-0.9c0.2-0.3 0.6-0.4 0.9-0.2c1.3 0.9 2.4 1.4 3.2 1.8c0.3 0.2 0.4 0.5 0.3 0.9c-0.1 0.2-0.4 0.3-0.6 0.3zm-6.2-4q-0.2 0-0.4-0.1q-1.5-1.3-2.7-2.7c-0.2-0.3-0.2-0.7 0.1-0.9c0.3-0.3 0.7-0.2 0.9 0q1.1 1.4 2.5 2.6c0.3 0.2 0.3 0.6 0.1 0.9q-0.2 0.2-0.5 0.2zm-4.6-5.6c-0.3 0-0.5-0.2-0.6-0.4q-0.8-1.5-1.2-3.1q-0.1-0.3-0.1-0.5c-0.1-0.4 0.2-0.7 0.5-0.8c0.4 0 0.7 0.2 0.8 0.6q0 0.2 0 0.4q0.4 1.4 1.1 2.8c0.2 0.3 0.1 0.7-0.2 0.9q-0.2 0.1-0.3 0.1zm-0.4-7q-0.2 0-0.4-0.1c-0.3-0.2-0.3-0.6-0.1-0.9c0.6-0.9 1.5-1.7 2.7-2.7c0.3-0.2 0.7-0.1 1 0.2c0.2 0.3 0.1 0.7-0.2 0.9c-1.1 0.8-1.9 1.6-2.5 2.4c-0.1 0.1-0.3 0.2-0.5 0.2zm5.7-4.5c-0.2 0-0.4-0.1-0.5-0.3c-0.2-0.3-0.1-0.7 0.2-0.9q0.6-0.4 1.3-0.8q0.9-0.5 1.9-1.1c0.3-0.2 0.7-0.1 0.8 0.2c0.2 0.3 0.1 0.7-0.2 0.9q-0.9 0.6-1.9 1.1q-0.6 0.4-1.2 0.8q-0.2 0.1-0.4 0.1zm6.2-4q-0.3 0-0.5-0.2c-0.2-0.3-0.1-0.7 0.2-0.9c1-0.9 1.8-1.7 2.4-2.5c0.2-0.3 0.6-0.4 0.9-0.2c0.3 0.2 0.3 0.6 0.1 0.9c-0.6 0.9-1.4 1.9-2.7 2.8q-0.1 0.1-0.4 0.1zm3.5-6.1c-0.3 0-0.6-0.2-0.6-0.6q-0.2-1.1-0.8-2.4q-0.2-0.3-0.5-0.7c-0.1-0.3-0.1-0.7 0.3-0.9c0.3-0.2 0.7-0.1 0.8 0.2q0.3 0.4 0.5 0.8q0.8 1.5 0.9 2.9c0.1 0.4-0.2 0.7-0.5 0.7q-0.1 0-0.1 0zm-12-0.5q-0.3 0-0.6 0c-2.2-0.2-2.8-1.4-3-2.1c-0.1-0.3 0.1-0.7 0.5-0.8c0.3 0 0.7 0.2 0.8 0.5c0.2 0.8 1.1 1 1.8 1.1q0.3 0 0.5 0c0.4 0 0.7 0.3 0.7 0.7c0 0.3-0.3 0.6-0.6 0.6zm3.1-1.6q-0.2 0-0.3-0.1c-0.3-0.2-0.4-0.6-0.2-0.9q0.8-1.2 1.1-3.2c0-0.4 0.3-0.6 0.7-0.6c0.4 0.1 0.6 0.4 0.6 0.8q-0.3 2.3-1.3 3.7c-0.2 0.2-0.4 0.3-0.6 0.3zm-4.7-3.3q-0.3 0-0.5-0.1c-0.3-0.3-0.3-0.7 0-1c0.9-0.9 2-1.7 3.3-2.1c0.3-0.2 0.7 0 0.8 0.3c0.1 0.4 0 0.7-0.4 0.9c-1 0.4-2 1-2.8 1.8q-0.2 0.2-0.4 0.2zm9.9-0.8q-0.2 0-0.4-0.1q-1.4-1.2-3-1.5c-0.3 0-0.6-0.4-0.5-0.7c0-0.4 0.4-0.6 0.7-0.6q2 0.4 3.6 1.8c0.3 0.2 0.3 0.6 0.1 0.9q-0.2 0.2-0.5 0.2zm-3.9-3.1c-0.4 0-0.6-0.2-0.7-0.6q-0.1-1.7-0.5-3.5c-0.1-0.4 0.1-0.7 0.5-0.8c0.3-0.1 0.7 0.2 0.8 0.5q0.4 1.9 0.5 3.7c0.1 0.4-0.2 0.7-0.6 0.7q0 0 0 0zm-1.6-7.1c-0.3 0-0.5-0.2-0.6-0.4c-0.6-1.4-1.2-2.4-1.7-3c-0.3-0.2-0.3-0.7 0-0.9c0.2-0.3 0.6-0.3 0.9 0c0.7 0.7 1.4 1.9 2 3.4c0.1 0.3-0.1 0.7-0.4 0.8q-0.1 0.1-0.2 0.1z" /><path class="s19" d="m200.6 55.1l-3.1-4.4l-5.3 0.7c-0.5 0-0.8-0.6-0.5-1l3.2-4.3l-2.3-4.9c-0.2-0.4 0.2-0.9 0.7-0.8l5.1 1.7l3.9-3.6c0.4-0.4 1-0.1 1 0.4v5.4l4.7 2.6c0.4 0.2 0.3 0.9-0.1 1.1l-5.2 1.6l-1 5.2c-0.1 0.5-0.7 0.7-1.1 0.3z" /><path class="s19" d="m101.6 11l-4.5-0.3l-2.4 3.8c-0.2 0.4-0.8 0.3-0.9-0.2l-1.1-4.3l-4.3-1.2c-0.5-0.1-0.6-0.6-0.2-0.9l3.8-2.4l-0.2-4.5c-0.1-0.4 0.4-0.7 0.8-0.4l3.4 2.9l4.2-1.6c0.4-0.2 0.9 0.2 0.7 0.6l-1.7 4.2l2.9 3.5c0.2 0.3 0 0.8-0.5 0.8z" /><path class="s19" d="m184.8 8.2c5.5-3 7.4 2.4 5.5 5.2c-2 3.3-9.5 5.7-9.4 5.2c-9.1-13.8 2.4-16.9 3.9-10.4z" /><path class="s19" d="m7.6 87.9c5.4-3 7.4 2.5 5.4 5.3c-1.9 3.2-9.4 5.7-9.4 5.2c-9.1-13.8 2.5-16.9 4-10.5z" /><path class="s19" d="m39.4 12.9c1.1-5.6 6.1-3.8 6.9-0.7c1.1 3.2-1.6 9.9-1.9 9.6c-15-1.8-10.4-11.7-5-8.9z" /><path class="s9" d="m15.3 155.7c0 3-2.4 5.5-5.4 5.5c-3 0-5.5-2.5-5.5-5.5c0-3 2.5-5.4 5.5-5.4c3 0 5.4 2.4 5.4 5.4z" /><path class="s9" d="m77.2 12.5c0 2.4-2 4.4-4.5 4.4c-2.4 0-4.4-2-4.4-4.4c0-2.5 2-4.5 4.4-4.5c2.5 0 4.5 2 4.5 4.5z" /><path fill-rule="evenodd" class="s9" d="m17.9 150.2c-2.2 0-4-1.8-4-4c0-2.2 1.8-4 4-4c2.2 0 4 1.8 4 4c0 2.2-1.8 4-4 4zm0-6.5c-1.4 0-2.5 1.1-2.5 2.5c0 1.4 1.1 2.5 2.5 2.5c1.4 0 2.5-1.1 2.5-2.5c0-1.4-1.1-2.5-2.5-2.5z" /><path fill-rule="evenodd" class="s19" d="m216.2 25.1c-3.6 0-6.5-3-6.5-6.6c0-3.6 2.9-6.5 6.5-6.5c3.6 0 6.6 2.9 6.6 6.5c0 3.6-3 6.6-6.6 6.6zm0-10.6c-2.2 0-4 1.8-4 4c0 2.3 1.8 4.1 4 4.1c2.3 0 4.1-1.8 4.1-4.1c0-2.2-1.8-4-4.1-4z" /></g></svg>