<svg version="1.2" xmlns="http://www.w3.org/2000/svg" viewBox="0 0 171 114" width="171" height="114"><defs><clipPath clipPathUnits="userSpaceOnUse" id="cp1"><path d="m-721-149h960v574h-960z" /></clipPath></defs><style>.s0{fill:#fbb040}.s1{fill:#93c7ea}.s2{fill:#fca0a0}.s3{fill:#d15e79}.s4{fill:#0a3442}.s5{fill:#86294e}.s6{fill:#ffd2d4}.s7{fill:#201028}.s8{fill:#b0c7cf}.s9{fill:#d9f0f8}.s10{fill:#185b71}.s11{fill:#6eacce}.s12{fill:#ffffff}.s13{fill:none;stroke:#1b2a67;stroke-linecap:round;stroke-width:.8}.s14{fill:#ffe6c2}.s15{fill:#d19844}.s16{fill:#8bd8b1}.s17{fill:#fbb040;stroke:#fbb040;stroke-linecap:round;stroke-width:2.8}.s18{fill:#b7d0d9}.s19{fill:#bbcfd5}.s20{fill:none;stroke:#185b71;stroke-linecap:round;stroke-width:.7}.s21{fill:#195265}</style><g clip-path="url(#cp1)"><path fill-rule="evenodd" class="s0" d="m40.5 55.8c0.6 0 1.1 0.5 1.1 1.1c0 0.7-0.5 1.2-1.1 1.2c-0.7 0-1.2-0.5-1.2-1.2c0-0.6 0.5-1.1 1.2-1.1zm0 1.7c0.3 0 0.6-0.2 0.6-0.6c0-0.3-0.3-0.6-0.6-0.6c-0.4 0-0.6 0.3-0.6 0.6c0 0.4 0.2 0.6 0.6 0.6z" /><path class="s0" d="m19.9 14.6h6.5c0.2 0 0.3 0.1 0.3 0.2c0 0.2-0.1 0.3-0.3 0.3h-6.5c-0.2 0-0.3-0.1-0.3-0.3c0-0.1 0.1-0.2 0.3-0.2z" /><path class="s0" d="m28.5 14.6h1.3c0.1 0 0.3 0.1 0.3 0.2c0 0.2-0.2 0.3-0.3 0.3h-1.3c-0.2 0-0.3-0.1-0.3-0.3c0-0.1 0.1-0.2 0.3-0.2z" /><path class="s0" d="m23.2 16.5h0.8c0.2 0 0.3 0.2 0.3 0.3c0 0.2-0.1 0.3-0.3 0.3h-0.8c-0.1 0-0.3-0.1-0.3-0.3c0-0.1 0.2-0.3 0.3-0.3zm2.3 0h1.4c0.2 0 0.3 0.2 0.3 0.3c0 0.2-0.1 0.3-0.3 0.3h-1.4c-0.2 0-0.3-0.1-0.3-0.3c0-0.1 0.1-0.3 0.3-0.3zm2.8 0h1.5c0.1 0 0.3 0.2 0.3 0.3c0 0.2-0.2 0.3-0.3 0.3h-1.5c-0.1 0-0.2-0.1-0.2-0.3c0-0.1 0.1-0.3 0.2-0.3z" /><path class="s0" d="m126.2 33.7c0.2 0 0.3 0.2 0.3 0.3v0.7c0 0.1-0.1 0.3-0.3 0.3c-0.2 0-0.3-0.2-0.3-0.3v-0.7c0-0.1 0.1-0.3 0.3-0.3z" /><path class="s0" d="m127 33.1h0.6c0.2 0 0.3 0.1 0.3 0.2c0 0.2-0.1 0.3-0.3 0.3h-0.6c-0.2 0-0.3-0.1-0.3-0.3c0-0.1 0.1-0.2 0.3-0.2z" /><path class="s0" d="m126.2 31.7c0.2 0 0.3 0.1 0.3 0.3v0.6c0 0.2-0.1 0.3-0.3 0.3c-0.2 0-0.3-0.1-0.3-0.3v-0.6c0-0.2 0.1-0.3 0.3-0.3z" /><path class="s0" d="m124.8 33h0.7c0.1 0 0.2 0.1 0.2 0.3c0 0.2-0.1 0.3-0.2 0.3h-0.7c-0.2 0-0.3-0.1-0.3-0.3c0-0.2 0.1-0.3 0.3-0.3z" /><path class="s0" d="m54.1 15.1c0.1 0 0.3 0.2 0.3 0.3v0.7c0 0.1-0.2 0.3-0.3 0.3c-0.2 0-0.3-0.2-0.3-0.3v-0.7c0-0.1 0.1-0.3 0.3-0.3z" /><path class="s0" d="m54.8 14.5h0.7c0.1 0 0.3 0.1 0.3 0.3c0 0.1-0.2 0.2-0.3 0.2h-0.7c-0.1 0-0.3-0.1-0.3-0.2c0-0.2 0.2-0.3 0.3-0.3z" /><path class="s0" d="m54.1 13.1c0.1 0 0.3 0.1 0.3 0.3v0.6c0 0.2-0.2 0.3-0.3 0.3c-0.2 0-0.3-0.1-0.3-0.3v-0.6c0-0.2 0.1-0.3 0.3-0.3z" /><path class="s0" d="m52.7 14.4h0.6c0.2 0 0.3 0.1 0.3 0.3c0 0.2-0.1 0.3-0.3 0.3h-0.6c-0.2 0-0.3-0.1-0.3-0.3c0-0.2 0.1-0.3 0.3-0.3z" /><path class="s0" d="m80.8 0.9h6.6c0.1 0 0.3 0.1 0.3 0.3c0 0.1-0.2 0.3-0.3 0.3h-6.6c-0.1 0-0.3-0.2-0.3-0.3c0-0.2 0.2-0.3 0.3-0.3z" /><path class="s0" d="m89.5 0.9h1.2c0.2 0 0.3 0.1 0.3 0.3c0 0.1-0.1 0.3-0.3 0.3h-1.2c-0.2 0-0.3-0.2-0.3-0.3c0-0.2 0.1-0.3 0.3-0.3z" /><path class="s0" d="m84.2 2.9h0.8c0.2 0 0.3 0.1 0.3 0.3c0 0.1-0.1 0.3-0.3 0.3h-0.8c-0.2 0-0.3-0.2-0.3-0.3c0-0.2 0.1-0.3 0.3-0.3zm2.2 0h1.5c0.1 0 0.3 0.1 0.3 0.3c0 0.1-0.2 0.3-0.3 0.3h-1.5c-0.1 0-0.3-0.2-0.3-0.3c0-0.2 0.2-0.3 0.3-0.3zm2.9 0h1.4c0.2 0 0.3 0.1 0.3 0.3c0 0.1-0.1 0.3-0.3 0.3h-1.4c-0.2 0-0.3-0.2-0.3-0.3c0-0.2 0.1-0.3 0.3-0.3z" /><path class="s0" d="m10.3 30.9c0 0.6-0.4 1-1 1c-0.5 0-1-0.4-1-1c0-0.5 0.5-1 1-1c0.6 0 1 0.5 1 1z" /><path class="s0" d="m143.1 80.5h-6.6c-0.1 0-0.2-0.1-0.2-0.2c0-0.2 0.1-0.3 0.2-0.3h6.6c0.2 0 0.3 0.1 0.3 0.3c0 0.1-0.1 0.2-0.3 0.2z" /><path class="s0" d="m146.5 80.5h-1.3c-0.2 0-0.3-0.1-0.3-0.2c0-0.2 0.1-0.3 0.3-0.3h1.3c0.1 0 0.3 0.1 0.3 0.3c0 0.1-0.2 0.2-0.3 0.2z" /><path class="s0" d="m19.2 85.2c0 0-0.4 2.8 2.9 2.7c0 0-2.8 0.1-2.7 2.7c0 0-0.3-2.1-2.8-2.5c0 0 2.1 0.5 2.6-2.9z" /><path class="s0" d="m3.7 45.8c0 0-0.4 2.8 2.8 2.7c0 0-2.8 0.1-2.7 2.7c0 0-0.3-2.1-2.8-2.5c0 0 2.2 0.5 2.7-2.9z" /><path class="s0" d="m107.1 8c0 0-0.3 2.8 2.9 2.7c0 0-2.8 0-2.7 2.7c0 0-0.3-2.1-2.8-2.6c0 0 2.1 0.5 2.6-2.8z" /><path class="s0" d="m135.2 15.7c0 0-0.4 2.8 2.9 2.7c0 0-2.8 0.1-2.7 2.7c0 0-0.3-2.1-2.8-2.5c0 0 2.1 0.5 2.6-2.9z" /><path class="s0" d="m118.2 3.8c0 0-0.1 0.9 1 0.9c0 0-1 0-0.9 0.9c0 0-0.1-0.7-1-0.8c0 0 0.7 0.1 0.9-1z" /><path class="s0" d="m67.1 37.3c0 0-0.1 1 1 1c0 0-1 0-0.9 0.9c0 0-0.1-0.7-1-0.9c0 0 0.7 0.2 0.9-1z" /><path class="s0" d="m161.8 54c0 0-0.2 0.9 1 0.9c0 0-1 0-1 0.9c0 0-0.1-0.7-0.9-0.8c0 0 0.7 0.1 0.9-1z" /><path class="s0" d="m76.8 80.2c0 0-0.1 1 1 1c0 0-0.9 0-0.9 0.9c0 0-0.1-0.7-1-0.9c0 0 0.8 0.2 0.9-1z" /><path fill-rule="evenodd" class="s0" d="m114 63.1c0-0.9 0.7-1.5 1.5-1.5h0.4c0.2-0.8 0.9-1.4 1.8-1.2c0.4-0.7 1.1-1.1 1.9-1.1c1.3 0 2.3 1 2.3 2.3c0.8 0 1.4 0.7 1.4 1.5c0 0.8-0.6 1.4-1.4 1.4h-6.4c-0.8 0-1.5-0.6-1.5-1.4zm7.4-1.1l0.1-0.2q0-0.1 0-0.2c0-1-0.9-1.8-1.9-1.8c-0.7 0-1.3 0.3-1.6 0.9l-0.1 0.2l-0.1-0.1c-0.8-0.2-1.4 0.3-1.5 1l-0.1 0.2h-0.7c-0.6 0-1.1 0.5-1.1 1.1c0 0.5 0.5 1 1.1 1h6.4c0.5 0 1-0.5 1-1c0-0.6-0.5-1.1-1-1.1z" /><path fill-rule="evenodd" class="s0" d="m99 25.4c0-0.8 0.7-1.4 1.5-1.4h0.4c0.2-0.8 0.9-1.4 1.8-1.2c0.4-0.7 1.1-1.1 1.9-1.1c1.3 0 2.3 1 2.3 2.3c0.8 0 1.4 0.6 1.4 1.4c0 0.9-0.6 1.5-1.4 1.5h-6.4c-0.8 0-1.5-0.6-1.5-1.5zm7.4-1l0.1-0.2q0-0.1 0-0.2c0-1-0.9-1.8-1.9-1.8c-0.6 0-1.3 0.3-1.6 0.9l-0.1 0.1h-0.1c-0.8-0.2-1.4 0.3-1.5 1l-0.1 0.2h-0.7c-0.6 0-1 0.5-1 1c0 0.6 0.4 1.1 1 1.1h6.4c0.5 0 1-0.5 1-1.1c0-0.5-0.5-1-1-1z" /><path class="s1" d="m77 102.2l4.1-14.5c0.8-2.7 3.6-4.3 6.3-3.5c2.8 0.8 4.4 3.6 3.6 6.3l-4.1 14.5c-0.8 2.7-3.6 4.3-6.3 3.5c-2.8-0.8-4.4-3.6-3.6-6.3z" /><path class="s1" d="m79.1 108.3l-10.5-10.7c-2-2-1.9-5.3 0.1-7.3c2-1.9 5.3-1.9 7.3 0.1l10.5 10.7c1.9 2 1.9 5.3-0.1 7.3c-2 2-5.3 1.9-7.3-0.1z" /><path class="s2" d="m71.7 86.6c2.1 1.4 2.7 4.2 1.3 6.2c-1.4 2.1-4.2 2.7-6.3 1.3c-2-1.4-2.6-4.2-1.2-6.3c1.4-2 4.2-2.6 6.2-1.2z" /><path class="s2" d="m71.4 88.3l0.4-1.6c0.2-0.6 0.8-1 1.5-0.8c0.6 0.1 1 0.8 0.8 1.4l-0.4 1.5c-0.2 0.7-0.8 1-1.4 0.9c-0.7-0.2-1-0.8-0.9-1.4z" /><path class="s2" d="m68.4 82.8c0.7-0.3 1.4 0 1.6 0.6l1.6 4.1c0.3 0.6 0 1.3-0.7 1.6c-0.6 0.2-1.3-0.1-1.6-0.7l-1.6-4.1c-0.2-0.6 0.1-1.3 0.7-1.5z" /><path class="s2" d="m65.5 83.6c0.6-0.3 1.3-0.1 1.6 0.5l1.9 3.9c0.3 0.6 0.1 1.3-0.5 1.6c-0.6 0.3-1.3 0.1-1.6-0.5l-2-3.9c-0.3-0.6 0-1.3 0.6-1.6z" /><path class="s2" d="m63 85.6c0.6-0.4 1.3-0.3 1.8 0.2l2.6 3.5c0.5 0.5 0.4 1.3-0.2 1.7c-0.5 0.4-1.3 0.3-1.7-0.2l-2.7-3.4c-0.4-0.6-0.3-1.3 0.2-1.8z" /><path class="s2" d="m95.5 76c0 1.6-1.3 3-2.9 3.1c-1.7 0.1-3.1-1.2-3.2-2.9l-0.3-8.4l6-0.2z" /><path class="s3" d="m89.1 67.5l6-0.3l0.1 2.4c0.1 2.3-1.8 4.3-4.1 4.2q-0.2-0.1-0.4-0.1q-0.7-0.1-1.4-0.5z" /><path class="s4" d="m94.5 55.7c4 1.1 6.5 4.5 5.6 7.6c-0.8 3.1-4.8 4.6-8.7 3.5c-4-1.1-6.6-4.5-5.7-7.6c0.9-3.1 4.8-4.6 8.8-3.5z" /><path class="s4" d="m89 56.7c3.6 0.6 6.2 3 5.8 5.4c-0.4 2.3-3.6 3.7-7.3 3.1c-3.6-0.6-6.2-3-5.8-5.4c0.4-2.3 3.7-3.7 7.3-3.1z" /><path class="s4" d="m94.9 55.4c2.7 2.5 3.6 5.9 2 7.7c-1.7 1.8-5.2 1.2-7.9-1.3c-2.7-2.5-3.5-6-1.9-7.7c1.6-1.8 5.1-1.2 7.8 1.3z" /><path class="s2" d="m86.1 63.4c0.6-3.3 3.3-5.6 6-5.2c2.7 0.5 4.5 3.6 3.9 6.9l-0.5 2.6c-0.6 3.3-3.3 5.6-6 5.2c-2.7-0.5-4.5-3.6-3.9-6.9z" /><path class="s4" d="m91.5 57.9c1.5-1.4 4.1-0.7 5.8 1.4c1.8 2.2 1.9 5.1 0.4 6.5c-1.5 1.3-4.1 0.7-5.8-1.5c-1.8-2.2-1.9-5.1-0.4-6.4z" /><path class="s5" d="m90.3 65.2c0 0-0.6-0.4-1.2-0.1c-0.2 0.1-0.3 0.1-0.4-0.1c-0.1-0.1 0-0.3 0.1-0.3c0.9-0.6 1.8 0 1.8 0c0.2 0.1 0.2 0.3 0.1 0.4q-0.1 0.1-0.2 0.1q-0.1 0-0.2 0z" /><path class="s5" d="m85.5 65.1c-0.1-0.1 0-0.3 0.1-0.4c0 0 0.9-0.6 1.8 0c0.1 0 0.2 0.2 0.1 0.3c-0.1 0.2-0.2 0.2-0.4 0.1c-0.6-0.3-1.2 0.1-1.2 0.1q-0.1 0-0.2 0q-0.1 0-0.2-0.1z" /><path class="s5" d="m89.5 65.7c0.2 0 0.3 0.1 0.3 0.3c0 0.1-0.1 0.2-0.3 0.3c-0.1 0-0.3-0.2-0.3-0.3c0-0.2 0.2-0.3 0.3-0.3z" /><path class="s5" d="m86.8 65.8c0.1 0 0.3 0.1 0.3 0.3c0 0.1-0.2 0.3-0.3 0.3c-0.2 0-0.3-0.2-0.3-0.3c0-0.2 0.1-0.3 0.3-0.3z" /><path fill-rule="evenodd" class="s6" d="m84.3 67.5c-0.4-0.4-0.7-1-0.7-1.6c-0.1-0.6 0.2-1.2 0.6-1.6c0.4-0.4 0.9-0.7 1.5-0.7c0.6-0.1 1.2 0.2 1.7 0.6c0.4 0.4 0.7 0.9 0.7 1.5c0 0.6-0.2 1.2-0.6 1.7c-0.4 0.4-1 0.6-1.6 0.7q0 0-0.1 0c-0.5 0-1.1-0.2-1.5-0.6zm1.4-3.5c-0.4 0-0.9 0.2-1.3 0.6c-0.3 0.3-0.5 0.8-0.4 1.3c0 0.5 0.2 1 0.6 1.3c0.3 0.3 0.8 0.5 1.3 0.5c0.5 0 1-0.2 1.3-0.6c0.3-0.4 0.5-0.9 0.5-1.4c0-0.5-0.2-0.9-0.6-1.3c-0.4-0.3-0.8-0.4-1.3-0.4q0 0-0.1 0z" /><path fill-rule="evenodd" class="s6" d="m88.9 67.5c-0.5-0.5-0.7-1.1-0.8-1.8c0-0.6 0.2-1.3 0.7-1.8c0.5-0.5 1.1-0.8 1.8-0.8c0.6 0 1.3 0.2 1.8 0.7c0.5 0.4 0.8 1.1 0.8 1.7c0 1.4-1 2.6-2.4 2.7q-0.1 0-0.1 0c-0.7 0-1.3-0.3-1.8-0.7zm1.7-4c-0.6 0.1-1.1 0.3-1.5 0.7c-0.4 0.4-0.6 1-0.5 1.5c0 0.6 0.2 1.1 0.6 1.5c0.4 0.4 1 0.6 1.5 0.5c1.2 0 2.1-1 2.1-2.1c-0.1-0.6-0.3-1.1-0.7-1.5c-0.4-0.4-0.9-0.6-1.4-0.6q-0.1 0-0.1 0z" /><path class="s6" d="m88.6 66l-1 0.1c-0.1 0-0.2-0.1-0.2-0.2c0-0.1 0.1-0.2 0.2-0.2l1-0.1c0.1 0 0.2 0.1 0.2 0.2c0 0.1-0.1 0.2-0.2 0.2z" /><path class="s5" d="m87.5 66.8c0.4 0.1 0.8 0.4 0.8 0.7c0 0.3-0.3 0.6-0.7 0.5c-0.5 0-0.9-0.3-0.9-0.7c0-0.3 0.3-0.5 0.8-0.5z" /><path class="s5" d="m89.7 68.8c0 0.8-0.4 1.6-1.3 1.6c-0.8 0.1-1.5-0.5-1.5-1.3q1.4-0.4 2.8-0.3z" /><path class="s6" d="m87 69.1q1.2-0.4 2.4-0.3c0 0.5-0.4 0.7-1.1 0.8c-0.6 0.1-1.2-0.1-1.3-0.5z" /><path class="s7" d="m90 70.5c0-0.1 0.1-0.2 0.2-0.2h1.7c0.5 0 1-0.2 1.4-0.5l1.1-1c0 0 0.2 0 0.2 0.1c0.1 0 0.1 0.2 0 0.2l-1 0.9c-0.5 0.5-1.1 0.7-1.7 0.7h-1.7c-0.1 0-0.2-0.1-0.2-0.2z" /><path class="s6" d="m89.8 70.5c0-0.2 0.2-0.4 0.4-0.4h0.7c0.2 0 0.4 0.2 0.4 0.4c0 0.2-0.2 0.4-0.4 0.4h-0.7c-0.2 0-0.4-0.2-0.4-0.4z" /><path class="s8" d="m98.6 66c0.6 1.7-0.3 3.6-2 4.2c-1.7 0.6-3.6-0.3-4.2-2c-0.6-1.7 0.3-3.6 2-4.2c1.7-0.6 3.6 0.3 4.2 2z" /><path class="s9" d="m98.5 67c0.1 1.5-1 2.8-2.4 2.9c-1.4 0-2.6-1.2-2.7-2.7c0-1.6 1-2.9 2.5-2.9c1.4-0.1 2.6 1.1 2.6 2.7z" /><path class="s10" d="m96.4 65.9c0.5 0 0.9 0.5 0.9 1.1c0.1 0.7-0.3 1.2-0.8 1.2c-0.5 0-0.9-0.5-0.9-1.1c0-0.6 0.3-1.2 0.8-1.2z" /><path class="s1" d="m82.6 108.4l-1-25.4c0-1.3 0.7-2.5 1.9-3.1l9.3-4.4l11.8 3.7c1.3 0.4 2.2 1.6 2.2 3l1 26.2c0.1 2.7-1.9 4.9-4.5 5l-15.7-0.5c-2.7 0.1-4.9-1.9-5-4.5z" /><path class="s11" d="m82.3 91.2q0.2 4.1 0.4 8.2q0.1 4.1 0.2 8.2c0 0.7 0 1.3 0.2 2q0.3 0.9 0.9 1.7c0.9 1 2.2 1.6 3.6 1.6c-1.4 0.2-2.8-0.4-3.8-1.4c-0.6-0.5-0.9-1.1-1.2-1.8c-0.2-0.7-0.3-1.4-0.3-2.1q-0.2-4.1-0.4-8.2q-0.2-4.1-0.2-8.2c-0.1-2.7-0.1-5.4-0.1-8.2c0.3 2.7 0.5 5.5 0.7 8.2z" /><path class="s1" d="m97 79.9l-8.4 0.5l-0.3-4.3c-0.1-1 0.7-1.9 1.7-2l4.7-0.3c1.1 0 2 0.8 2.1 1.8z" /><path class="s1" d="m107.1 102.4l-5.8-13.8c-1.1-2.6 0.2-5.6 2.8-6.7c2.6-1.1 5.6 0.1 6.7 2.8l5.8 13.8c1.1 2.6-0.2 5.6-2.8 6.7c-2.6 1.1-5.6-0.1-6.7-2.8z" /><path class="s11" d="m101.2 86.4q0 0.6 0.2 1.3c0.1 0.4 0.3 0.8 0.5 1.3l1.1 2.6q1.1 2.7 2.1 5.4l1 2.7c0.4 0.9 0.7 1.8 1 2.7c-0.5-0.8-0.9-1.7-1.3-2.5l-1.2-2.7q-1.2-2.6-2.3-5.3l-1.1-2.6c-0.4-0.9-0.7-2-0.6-3c0.1-1 0.5-2 1.1-2.8c0.6-0.7 1.5-1.3 2.4-1.6c-1.7 0.9-2.8 2.6-2.9 4.5z" /><path fill-rule="evenodd" class="s5" d="m89.6 93.2l2.6-0.1c1-0.1 1.8 0.6 1.9 1.6v1.2c0.1 1-0.6 1.8-1.6 1.9l-2.6 0.2zm1.2 1.1l0.2 2.4l1.4-0.1c0.3-0.1 0.6-0.3 0.6-0.7l-0.1-1.2c0-0.3-0.3-0.6-0.6-0.5z" /><path class="s3" d="m84.7 99.4l-0.5-7.3c-0.1-0.8 7.2-1.3 7.2-0.4l0.5 7.2c0.1 1.4-0.9 2.6-2.3 2.7l-2.3 0.1c-1.4 0.1-2.6-0.9-2.6-2.3z" /><path class="s5" d="m87.8 91.6c1.7-0.1 3 0 3.1 0.3c0 0.3-1.3 0.6-3 0.8c-1.6 0.1-3-0.1-3-0.4c0-0.3 1.3-0.6 2.9-0.7z" /><path class="s1" d="m111.6 105.8l-15 0.3c-2.8 0-5.2-2.3-5.2-5.1c-0.1-2.8 2.2-5.2 5-5.2l15-0.3c2.9 0 5.2 2.3 5.2 5.1c0.1 2.8-2.2 5.2-5 5.2z" /><path class="s11" d="m105.7 95.9q-2.9 0.2-5.8 0.2h-2.9c-0.5 0-0.9 0-1.4 0.1q-0.6 0.1-1.3 0.4c-1.6 0.7-2.8 2.5-2.9 4.4c-0.1-1 0.1-2 0.6-2.8c0.4-0.9 1.2-1.7 2.1-2.1c0.8-0.6 2-0.7 2.9-0.7l2.9-0.1q2.9 0 5.8 0c1.9 0.1 3.8 0.1 5.7 0.2c-1.9 0.2-3.8 0.3-5.7 0.4z" /><path class="s2" d="m94.2 97c1.5 1.9 1.3 4.7-0.6 6.3c-2 1.6-4.8 1.4-6.4-0.6c-1.6-1.9-1.3-4.7 0.6-6.3c1.9-1.6 4.8-1.3 6.4 0.6z" /><path class="s2" d="m91.6 97l-0.4-1.3c-0.2-0.6 0.1-1.2 0.6-1.4c0.6-0.2 1.2 0.1 1.4 0.7l0.5 1.3c0.2 0.6-0.1 1.2-0.7 1.4c-0.5 0.2-1.2-0.1-1.4-0.7z" /><path class="s2" d="m83.4 97.1c0-0.6 0.6-1.1 1.2-1l4 0.3c0.6 0.1 1.1 0.6 1 1.3c0 0.6-0.6 1-1.2 1l-4-0.4c-0.6-0.1-1.1-0.6-1-1.2z" /><path class="s2" d="m84 100.9c0-0.6 0.5-1.1 1.1-1.2l4-0.2c0.6-0.1 1.2 0.4 1.2 1c0 0.6-0.4 1.2-1.1 1.2l-4 0.3c-0.6 0-1.1-0.5-1.2-1.1z" /><path class="s0" d="m44.1 88.2l-4.5-4.5c-0.1-0.2-0.1-0.5 0-0.7c0.2-0.2 0.5-0.2 0.7 0l4.5 4.5c0.2 0.2 0.2 0.5 0 0.7q-0.1 0.1-0.3 0.1q-0.2 0-0.4-0.1z" /><path class="s0" d="m47.2 85.1v-6.4c0-0.2 0.2-0.4 0.5-0.4c0.2 0 0.4 0.2 0.4 0.4v6.4c0 0.2-0.2 0.5-0.4 0.5c-0.3 0-0.5-0.3-0.5-0.5z" /><path class="s0" d="m34.9 91c0-0.2 0.2-0.4 0.5-0.4h6.3c0.3 0 0.5 0.2 0.5 0.4c0 0.3-0.2 0.5-0.5 0.5h-6.3c-0.3 0-0.5-0.2-0.5-0.5z" /><path class="s10" d="m91.7 111.3h-38.8c-1.1 0-1.4-0.9-1.4-2h42.2c0 1.1-0.9 2-2 2z" /><path class="s10" d="m94.1 111.3c-0.1 0-2.6 0-2.6 0h-9c-1.3 0-2.3-0.9-2.3-2h13.8c1.3 0 1.3 1.9 0.1 2z" /><path class="s10" d="m79.4 109.9h-27.9c-0.8 0-1.5-0.6-1.7-1.4l-3.8-16.2c-0.2-1 0.7-2 1.7-2h27.9c0.8 0 1.6 0.6 1.7 1.4l3.8 16.1c0.2 1.1-0.6 2.1-1.7 2.1z" /><path class="s10" d="m81.1 107.8c0.1 0.7-0.2 1.4-0.7 1.7c-0.4-0.2-0.6-0.6-0.7-1l-3.8-16.2c-0.1-0.7 0.2-1.3 0.7-1.7c0.4 0.3 0.6 0.6 0.7 1.1z" /><path class="s12" d="m58.1 100.4c0-0.9 0.7-1.7 1.7-1.7h4.5c1 0 1.7 0.8 1.7 1.7c0 1-0.7 1.7-1.7 1.7h-4.5c-1 0-1.7-0.7-1.7-1.7z" /><path class="s10" d="m89.4 109.3c0-0.2 0.2-0.4 0.4-0.4h1.4c0.3 0 0.5 0.2 0.5 0.4c0 0.3-0.2 0.5-0.5 0.5h-1.4c-0.2 0-0.4-0.2-0.4-0.5z" /><path class="s10" d="m86.7 109.3c0-0.2 0.2-0.4 0.5-0.4h1.3c0.3 0 0.5 0.2 0.5 0.4c0 0.3-0.2 0.5-0.5 0.5h-1.3c-0.3 0-0.5-0.2-0.5-0.5z" /><path class="s10" d="m84 109.3c0-0.2 0.2-0.4 0.5-0.4h1.4c0.2 0 0.4 0.2 0.4 0.4c0 0.3-0.2 0.5-0.4 0.5h-1.4c-0.3 0-0.5-0.2-0.5-0.5z" /><path class="s10" d="m81.3 109.3c0-0.2 0.2-0.4 0.5-0.4h1.4c0.2 0 0.5 0.2 0.5 0.4c0 0.3-0.3 0.5-0.5 0.5h-1.4c-0.3 0-0.5-0.2-0.5-0.5z" /><path class="s4" d="m29.5 112.3c0-0.6 0.6-1.2 1.2-1.2h117.3c0.7 0 1.2 0.6 1.2 1.2c0 0.7-0.5 1.2-1.2 1.2h-117.3c-0.6 0-1.2-0.5-1.2-1.2z" /><path class="s13" d="m130.5 103.9c0 0 0.8-6.5 2.4-8.1" /><path class="s14" d="m132.6 91.9c0.4-1.2 2.3-0.6 1.9 0.6q0 0 0 0c-0.4 1.4-1.2 2.4-1.7 2.3c-0.5-0.2-0.6-1.4-0.2-2.8q0 0 0-0.1z" /><path class="s14" d="m130.1 95.1c-1.2-0.4-0.6-2.3 0.6-1.9q0 0 0 0c1.4 0.4 2.4 1.2 2.2 1.7c-0.1 0.5-1.4 0.6-2.7 0.2q-0.1 0-0.1 0z" /><path class="s14" d="m134.9 96.5c-1.4-0.4-2.4-1.2-2.2-1.7c0.1-0.5 1.4-0.6 2.8-0.2q0 0 0 0c1.2 0.4 0.7 2.3-0.6 1.9q0 0 0 0z" /><path class="s14" d="m132.6 98.1c-0.4-1.4-0.3-2.7 0.2-2.8c0.5-0.2 1.3 0.8 1.7 2.2q0 0.1 0 0.1c0.3 1.2-1.6 1.7-1.9 0.5q0 0 0 0z" /><path class="s14" d="m131.2 97.7c-1 0.8-2.3-0.7-1.3-1.5q0 0 0 0c1.1-1 2.3-1.4 2.7-1c0.3 0.4-0.3 1.5-1.4 2.5q0 0 0 0z" /><path class="s0" d="m133 94.5c0.4 0.1 0.6 0.5 0.5 0.8c-0.1 0.4-0.5 0.6-0.9 0.5c-0.3-0.1-0.5-0.5-0.4-0.9c0.1-0.3 0.5-0.5 0.8-0.4z" /><path class="s10" d="m137.2 98.4c0 0-0.5 2.4-2.3 3.8c-1.7 1.4-3.6 2-4.2 1.3c-0.5-0.6 0.5-2.3 2.3-3.8c1.8-1.4 4.2-1.3 4.2-1.3z" /><path class="s10" d="m124.5 97.4c0 0 2.7 0.1 4.6 1.9c1.9 1.8 2.9 3.8 2.3 4.5c-0.7 0.7-2.8-0.1-4.7-1.9c-1.9-1.8-2.2-4.5-2.2-4.5z" /><path class="s4" d="m127 103.7h8.4l-1.1 7.8h-6.2z" /><path class="s4" d="m126.2 103.6c0-0.4 0.4-0.8 0.8-0.8h8.4c0.4 0 0.8 0.4 0.8 0.8v1.4c0 0.4-0.4 0.7-0.8 0.7h-8.4c-0.4 0-0.8-0.3-0.8-0.7z" /><path class="s15" d="m112.3 45.4l-3.1 3.3l-23.5-9.8z" /><path class="s0" d="m111.2 34.5l2.3 3.5l-1.6 3.4l3.5 0.6l3.1 6.8l-33.5-10.1z" /><path class="s15" d="m95.3 38.9l18.2-0.9l-1.6 3.4z" /><path class="s0" d="m110.7 75.2c-0.3 0-0.5-0.2-0.5-0.5c0-0.2 0.2-0.4 0.5-0.4c1.3 0 2.5 0.1 3.8 0c0.2 0 0.4 0.2 0.4 0.5c0 0.3-0.2 0.5-0.4 0.5q-0.4 0-0.8 0q-1.5 0-3-0.1zm7.1-0.5c-0.1-0.3 0.1-0.5 0.4-0.5q1.9-0.2 3.7-0.5c0.3-0.1 0.5 0.1 0.5 0.4c0.1 0.2-0.1 0.5-0.3 0.5q-1.9 0.3-3.8 0.5q0 0-0.1 0c-0.2 0-0.4-0.2-0.4-0.4zm7.4-1.3c-0.1-0.2 0.1-0.5 0.3-0.6q1.8-0.5 3.5-1.3c0.2-0.1 0.5 0 0.6 0.2c0.1 0.3 0 0.5-0.2 0.6q-1.7 0.9-3.6 1.4q-0.1 0-0.1 0c-0.2 0-0.4-0.1-0.5-0.3zm6.9-3.1c-0.2-0.2-0.1-0.5 0.1-0.6q1.6-1.1 2.9-2.3c0.2-0.2 0.5-0.2 0.7 0c0.2 0.2 0.1 0.5 0 0.7q-1.5 1.3-3.1 2.4q-0.1 0-0.2 0q-0.3 0-0.4-0.2zm5.6-5c-0.2-0.1-0.2-0.4-0.1-0.6q1.2-1.5 2.1-3.1c0.1-0.2 0.4-0.3 0.7-0.2c0.2 0.2 0.3 0.5 0.1 0.7q-0.9 1.7-2.1 3.2q-0.2 0.1-0.4 0.1q-0.1 0-0.3-0.1zm3.9-6.4c-0.3-0.1-0.4-0.4-0.3-0.6q0.7-1.8 1-3.6c0.1-0.2 0.3-0.4 0.6-0.4c0.2 0.1 0.4 0.3 0.3 0.6q-0.3 1.9-1 3.7c-0.1 0.2-0.3 0.3-0.5 0.3q0 0-0.1 0zm1.6-7.4c-0.3 0-0.5-0.2-0.4-0.5q0-1.1 0-2.3v-0.2q0-0.6 0-1.2c0-0.3 0.2-0.5 0.5-0.5c0.2 0 0.4 0.2 0.5 0.5q0 0.6 0 1.2v0.2q0 1.2-0.1 2.4c0 0.2-0.2 0.4-0.5 0.4q0 0 0 0z" /><path class="s0" d="m137.6 44c-0.3 0-0.5-0.2-0.5-0.4c0-0.3 0.2-0.5 0.5-0.5q2 0 3.8 0c0.2 0 0.5 0.2 0.5 0.5c0 0.2-0.2 0.4-0.5 0.4q-1 0.1-2.1 0.1q-0.8 0-1.7-0.1zm-3.8-0.1q-1.8-0.1-3.8-0.3c-0.2 0-0.4-0.2-0.4-0.5c0-0.2 0.3-0.4 0.5-0.4q1.9 0.2 3.8 0.3c0.2 0 0.4 0.2 0.4 0.5c0 0.2-0.2 0.4-0.5 0.4q0 0 0 0zm10.9-0.5c0-0.2 0.2-0.5 0.4-0.5q2-0.1 3.8-0.4c0.2 0 0.4 0.1 0.5 0.4c0 0.3-0.2 0.5-0.4 0.5q-1.8 0.3-3.8 0.4q0 0 0 0c-0.3 0-0.5-0.1-0.5-0.4zm-18.4-0.2q-1.9-0.2-3.8-0.4c-0.3-0.1-0.4-0.3-0.4-0.6c0-0.2 0.3-0.4 0.5-0.4q1.9 0.3 3.8 0.5c0.2 0 0.4 0.3 0.4 0.5c-0.1 0.3-0.3 0.4-0.5 0.4q0 0 0 0zm25.9-0.8c-0.1-0.3 0.1-0.5 0.3-0.6q1.4-0.3 2.6-0.6q0.5-0.2 1-0.4c0.3 0 0.5 0.1 0.6 0.3c0.1 0.3 0 0.6-0.3 0.6q-0.5 0.2-1 0.4q-1.3 0.3-2.7 0.7q0 0-0.1 0c-0.2 0-0.4-0.2-0.4-0.4zm7.2-2.3c-0.2-0.2-0.1-0.5 0.2-0.6q1.7-0.9 3.2-1.9c0.2-0.2 0.5-0.1 0.6 0.1c0.2 0.2 0.1 0.5-0.1 0.6q-1.5 1.1-3.3 2q-0.1 0-0.2 0c-0.2 0-0.4 0-0.4-0.2zm-16.3-0.6v-0.2q0-1.8 0.2-3.7c0-0.2 0.2-0.4 0.5-0.4c0.2 0 0.4 0.3 0.4 0.5q-0.1 1.8-0.1 3.6v0.2c0 0.2-0.2 0.4-0.5 0.4c-0.3 0-0.5-0.2-0.5-0.4zm22.4-3.7c-0.1-0.2-0.2-0.5 0-0.6q1.3-1.4 2.1-3c0.2-0.2 0.5-0.3 0.7-0.2c0.2 0.1 0.3 0.4 0.2 0.6q-1 1.7-2.3 3.2q-0.1 0.1-0.3 0.1q-0.2 0-0.4-0.1zm-21.4-3.4c-0.2-0.1-0.4-0.3-0.4-0.6q0.4-1.9 0.9-3.7c0.1-0.3 0.3-0.4 0.6-0.3c0.2 0.1 0.4 0.3 0.3 0.6q-0.5 1.7-0.8 3.6c-0.1 0.2-0.3 0.4-0.5 0.4q0 0-0.1 0zm25.2-3c-0.2-0.1-0.4-0.4-0.3-0.6q0.1-0.3 0.2-0.6q0.2-1 0.2-1.9q0-0.5-0.1-1.1c0-0.2 0.2-0.4 0.4-0.5c0.3 0 0.5 0.2 0.5 0.4q0.1 0.6 0.1 1.2q0 1-0.2 2.1q-0.1 0.3-0.2 0.6c0 0.2-0.2 0.4-0.4 0.4q-0.1 0-0.2 0zm-23.1-4.3c-0.3-0.1-0.4-0.4-0.2-0.6q0.8-1.9 2-3.3c0.2-0.2 0.5-0.2 0.7-0.1c0.2 0.2 0.2 0.5 0 0.7q-1.1 1.3-1.9 3.1c-0.1 0.2-0.2 0.3-0.4 0.3q-0.1 0-0.2-0.1zm21.7-3.1q-1-1.3-2.7-2.3c-0.2-0.2-0.3-0.5-0.1-0.7c0.1-0.2 0.4-0.3 0.6-0.1q1.8 1.1 3 2.6c0.1 0.2 0.1 0.5-0.1 0.6q-0.1 0.1-0.3 0.1q-0.2 0-0.4-0.2zm-17.2-2.8c-0.1-0.2 0-0.5 0.2-0.6q1.6-1.1 3.6-1.6c0.2-0.1 0.5 0.1 0.5 0.3c0.1 0.3-0.1 0.6-0.3 0.6q-1.8 0.5-3.3 1.4q-0.1 0.1-0.3 0.1q-0.2 0-0.4-0.2zm11.2-1q-1.7-0.5-3.5-0.6h-0.1c-0.3 0-0.5-0.3-0.5-0.5c0-0.3 0.3-0.5 0.5-0.5h0.2q1.9 0.2 3.7 0.7c0.2 0.1 0.4 0.3 0.3 0.6c-0.1 0.2-0.3 0.3-0.5 0.3q0 0-0.1 0z" /><path class="s16" d="m51.5 33.3v8.9c0 2.1-1.7 3.9-3.9 3.9h-1.9v3.6l-4-3.6h-11.3c-2.1 0-3.9-1.8-3.9-3.9v-8.9c0-2.1 1.8-3.9 3.9-3.9h17.2c2.2 0 3.9 1.8 3.9 3.9z" /><path class="s12" d="m45.1 34.9h-12.2c-0.2 0-0.5-0.2-0.5-0.5c0-0.2 0.3-0.5 0.5-0.5h12.2c0.3 0 0.5 0.3 0.5 0.5c0 0.3-0.2 0.5-0.5 0.5z" /><path class="s12" d="m45.1 38.2h-12.2c-0.2 0-0.5-0.2-0.5-0.5c0-0.3 0.3-0.5 0.5-0.5h12.2c0.3 0 0.5 0.2 0.5 0.5c0 0.3-0.2 0.5-0.5 0.5z" /><path class="s12" d="m34.7 41.4h-1.8c-0.2 0-0.5-0.2-0.5-0.5c0-0.2 0.3-0.5 0.5-0.5h1.8c0.3 0 0.5 0.3 0.5 0.5c0 0.3-0.2 0.5-0.5 0.5z" /><path class="s12" d="m38.8 41.4h-1.8c-0.3 0-0.5-0.2-0.5-0.5c0-0.2 0.2-0.5 0.5-0.5h1.8c0.3 0 0.5 0.3 0.5 0.5c0 0.3-0.2 0.5-0.5 0.5z" /><path class="s12" d="m45.1 41.4h-4c-0.3 0-0.5-0.2-0.5-0.5c0-0.2 0.2-0.5 0.5-0.5h4c0.3 0 0.5 0.3 0.5 0.5c0 0.3-0.2 0.5-0.5 0.5z" /><path class="s12" d="m52 47.3h19.3c1.9 0 3.4 1.6 3.4 3.4v11.1c0 1.8-1.4 3.3-3.2 3.5l4 6.5l-10.4-6.5h-13.1c-1.8 0-3.4-1.6-3.4-3.5v-11.1c0-1.8 1.6-3.4 3.4-3.4z" /><path class="s17" d="m63.3 52c0.9 0.9 0.9 2.3 0 3.2c-0.9 0.9-2.4 0.9-3.2 0c-0.9-0.9-0.9-2.3 0-3.2c0.8-0.9 2.3-0.9 3.2 0z" /><path class="s17" d="m59.7 57.8h3.9c1.9 0 3.5 1.6 3.5 3.5h-10.8c0-1.9 1.5-3.5 3.4-3.5z" /><path class="s10" d="m73.9 29.2c-0.3-0.1-0.4-0.3-0.4-0.6c0-0.2 0.3-0.4 0.5-0.4c1 0.2 2 0.2 3 0c0.2-0.1 0.5 0.1 0.5 0.3c0.1 0.3-0.1 0.5-0.3 0.6q-1 0.2-1.9 0.2q-0.7 0-1.4-0.1zm-3.1-1.1q-1.5-0.8-2.6-2.1c-0.1-0.2-0.1-0.5 0.1-0.6c0.2-0.2 0.5-0.2 0.6 0q1 1.2 2.3 1.9c0.3 0.1 0.3 0.4 0.2 0.6c-0.1 0.2-0.2 0.3-0.4 0.3q-0.1 0-0.2-0.1zm8.8-0.4c-0.2-0.2-0.1-0.5 0.1-0.6q1.3-0.8 2.2-2c0.2-0.2 0.5-0.3 0.7-0.1c0.2 0.1 0.2 0.4 0 0.6q-1 1.4-2.4 2.2q-0.1 0.1-0.2 0.1q-0.3 0-0.4-0.2zm-13-4.5q-0.6-1.5-0.6-3.2c0-0.3 0.2-0.5 0.5-0.5c0.2 0 0.4 0.2 0.4 0.5q0 1.5 0.5 2.9c0.1 0.2 0 0.5-0.2 0.6q-0.1 0-0.2 0c-0.2 0-0.4-0.1-0.4-0.3zm17-0.2c-0.3 0-0.4-0.3-0.3-0.6q0.3-1.2 0.3-2.4q0-0.3 0-0.5c0-0.2 0.2-0.5 0.5-0.5c0.2 0 0.4 0.2 0.5 0.5q0 0.2 0 0.5q0 1.4-0.4 2.7c-0.1 0.2-0.3 0.4-0.5 0.4q-0.1 0-0.1-0.1zm-17-4.7c-0.3-0.1-0.4-0.3-0.3-0.6q0.4-1.6 1.3-3c0.1-0.2 0.4-0.2 0.7-0.1c0.2 0.2 0.2 0.5 0.1 0.7q-0.9 1.2-1.2 2.7c-0.1 0.2-0.3 0.3-0.5 0.3q0 0-0.1 0zm16.3-1.7q-0.6-1.3-1.6-2.4c-0.2-0.2-0.2-0.5 0-0.7c0.2-0.2 0.5-0.2 0.7 0q1.1 1.2 1.8 2.8c0.1 0.2 0 0.5-0.2 0.6q-0.1 0-0.2 0c-0.2 0-0.4-0.1-0.5-0.3zm-13.1-3.5c-0.2-0.3-0.1-0.6 0.1-0.7q1.4-1 3-1.4c0.2-0.1 0.5 0.1 0.6 0.3c0 0.3-0.1 0.5-0.4 0.6q-1.4 0.4-2.7 1.3q-0.1 0.1-0.2 0.1q-0.3-0.1-0.4-0.2zm9.1-0.6q-1.3-0.7-2.8-0.8c-0.3-0.1-0.5-0.3-0.5-0.5c0.1-0.3 0.3-0.5 0.5-0.5q1.7 0.2 3.2 0.9c0.2 0.1 0.3 0.4 0.2 0.6c-0.1 0.2-0.2 0.3-0.4 0.3q-0.1 0-0.2 0z" /><path class="s10" d="m75.3 15.5c3.4 0 6.1 1.8 6.1 4.1c0 0.6-0.4 1-0.9 0.8l-1.6-0.7c-0.4-0.2-0.6-0.7-0.4-1.2l0.2-0.5c0 0-3 0.5-6.8 0l0.2 0.7c0.1 0.4-0.1 0.9-0.4 1.1l-1.6 0.8c-0.4 0.3-0.9 0-1-0.6q0-0.2 0-0.4c0-2.3 2.8-4.1 6.2-4.1z" /><path class="s18" d="m72.3 20.5c0.2-0.8 0.9-1.3 1.7-1.3h2.6c0.8 0 1.4 0.5 1.7 1.3l1.3 3.9h-8.6z" /><path class="s10" d="m18.8 77.5c-0.2 0-0.4-0.3-0.4-0.5c0.1-0.3 0.3-0.5 0.6-0.4c0.9 0.1 1.9 0.1 2.9-0.1c0.3-0.1 0.5 0.1 0.6 0.3c0 0.3-0.1 0.5-0.4 0.6q-0.9 0.2-1.9 0.2q-0.7 0-1.4-0.1zm-3.1-1.1q-1.4-0.8-2.5-2c-0.2-0.2-0.2-0.5 0-0.7c0.2-0.2 0.5-0.1 0.7 0q1 1.2 2.3 1.9c0.2 0.1 0.3 0.4 0.1 0.7c0 0.1-0.2 0.2-0.4 0.2q-0.1 0-0.2-0.1zm8.8-0.4c-0.1-0.2-0.1-0.5 0.1-0.6q1.3-0.8 2.2-2c0.2-0.2 0.5-0.3 0.7-0.1c0.2 0.2 0.2 0.5 0.1 0.7q-1 1.3-2.5 2.2q-0.1 0-0.2 0q-0.2 0-0.4-0.2zm-13-4.5q-0.6-1.5-0.6-3.2c0-0.3 0.2-0.5 0.5-0.5c0.2 0 0.5 0.2 0.5 0.5q0 1.5 0.5 2.9c0.1 0.2-0.1 0.5-0.3 0.6q-0.1 0-0.2 0c-0.2 0-0.3-0.1-0.4-0.3zm17-0.1c-0.2-0.1-0.4-0.4-0.3-0.6q0.4-1.2 0.4-2.5q0-0.2-0.1-0.5c0-0.2 0.2-0.4 0.5-0.5c0.2 0 0.5 0.2 0.5 0.5q0 0.2 0 0.5q0 1.4-0.4 2.7c-0.1 0.2-0.3 0.4-0.5 0.4q0 0-0.1 0zm-17-4.8c-0.2 0-0.4-0.3-0.3-0.5q0.4-1.7 1.3-3c0.2-0.3 0.5-0.3 0.7-0.2c0.2 0.2 0.3 0.5 0.1 0.7q-0.8 1.2-1.2 2.7c-0.1 0.2-0.2 0.3-0.5 0.3q0 0-0.1 0zm16.4-1.6q-0.6-1.4-1.7-2.5c-0.2-0.2-0.2-0.5 0-0.7c0.2-0.1 0.5-0.1 0.7 0.1q1.2 1.2 1.8 2.7c0.1 0.2 0 0.5-0.2 0.6q-0.1 0-0.2 0c-0.2 0-0.4-0.1-0.4-0.2zm-13.2-3.6c-0.1-0.2-0.1-0.5 0.1-0.7q1.4-0.9 3-1.4c0.3 0 0.5 0.1 0.6 0.4c0 0.2-0.1 0.5-0.4 0.5q-1.4 0.4-2.6 1.3q-0.2 0.1-0.3 0.1q-0.2 0-0.4-0.2zm9.1-0.6q-1.3-0.7-2.8-0.8c-0.3 0-0.5-0.3-0.4-0.5c0-0.3 0.2-0.5 0.5-0.5q1.6 0.2 3.1 0.9c0.3 0.1 0.4 0.4 0.3 0.7c-0.1 0.1-0.3 0.2-0.5 0.2q-0.1 0-0.2 0z" /><path class="s19" d="m14.8 66.6h10.9v6.2h-10.9z" /><path class="s9" d="m16.3 66.6h-2v-1.2c0-0.6 0.4-1 1-1c0.6 0 1 0.4 1 1v0.7" /><path class="s9" d="m15.6 64.4h-0.2h7.3c0.6 0 1 0.4 1 1v6.4h-7.4v-6.4c0-0.5-0.3-0.9-0.7-1z" /><path class="s9" d="m21.6 65.4h1.7v1.7h-1.7z" /><path class="s20" d="m21.1 65.4h-4.2" /><path class="s20" d="m21.1 66h-4.2" /><path class="s20" d="m21.1 66.5h-4.2" /><path class="s20" d="m21.1 67.1h-4.2" /><path class="s20" d="m23.3 67.7h-6.4" /><path class="s20" d="m23.3 68.2h-6.4" /><path class="s20" d="m23.3 68.8h-6.4" /><path class="s20" d="m23.3 69.4h-3.1" /><path class="s21" d="m25.7 66.6v6.2h-8.2z" /><path class="s21" d="m23.1 72.8h-8.3v-6.2z" /><path class="s10" d="m19.7 70.2c0.4-0.2 0.8-0.2 1.1 0l4.9 2.6h-5.4h-5.5z" /></g></svg>