<svg version="1.2" xmlns="http://www.w3.org/2000/svg" viewBox="0 0 96 99" width="96" height="99"><defs><clipPath clipPathUnits="userSpaceOnUse" id="cp1"><path d="m-403-219h960v563h-960z" /></clipPath></defs><style>.s0{fill:#f0f7f9}.s1{fill:#a7bcc2}</style><g clip-path="url(#cp1)"><path class="s0" d="m7.4 98.5c0 0-9.7-12.3-6.9-27.1c2.8-14.8 16.7-21.4 17.3-30.9c0.6-9.5-4.5-18.9 2.5-30.4c5.9-9.5 26.8-13.4 36.8-4.6c10.5 9.2 7 14.3 15.5 20.7c8.5 6.4 14.2 1.9 19.9 11.9c7.1 12.4-0.7 22.6-8.3 31.6c-7.5 9 4.5 13.6 2.7 28.8z" /><path fill-rule="evenodd" class="s1" d="m20.5 83.6q0-0.4 0.1-0.8l1.8-4.9q0-0.1 0-0.2l6.7-18.6c0.2-0.8 0.9-1.3 1.7-1.3h3.7c-1.7-3.7-2.5-7.7-2.5-11.7c0-8.6 6.9-15.5 15.5-15.5c8.6 0 15.5 6.9 15.5 15.5c0 4-0.8 8-2.4 11.7h3.6c0.8 0 1.5 0.5 1.7 1.3l5.2 14.5q0.1 0.1 0.1 0.1l3.2 9.1c0.2 0.6 0.1 1.2-0.2 1.7c-0.3 0.5-0.9 0.7-1.5 0.7h-50.4c-0.8 0.1-1.6-0.5-1.8-1.4zm2.3-1.6l14.9-6.4c0.2-0.1 0.5-0.1 0.7 0l18.2 7.8h6.1l-19.6-8.5c-0.3-0.1-0.5-0.4-0.5-0.8c0-0.4 0.2-0.7 0.5-0.9l2.5-1q-0.8-0.7-2-1.8l-7.9 3.4q-0.1 0-0.3 0q-0.2 0-0.4 0l-8-3.5l-0.8 2.3l4.1 1.9c0.4 0.1 0.6 0.4 0.6 0.8c0 0.4-0.2 0.7-0.6 0.8l-6.4 2.8zm2-5.6l2.9-1.2l-2.1-0.9zm2.8-7.9l7.8 3.4l6.7-2.9q-1-1.1-2.2-2.5l-10-4.3zm28.9-3.8q-1.7 2.2-3.7 4.2l3.8-1.6c0.2-0.1 0.5-0.1 0.7 0l11.4 4.9l-1.1-3.1l-5.7-2.4c-0.3-0.2-0.5-0.5-0.5-0.9c0-0.3 0.2-0.7 0.5-0.8l3.7-1.6l-0.9-2.3l-8.2 3.6zm9.7 0.5l-1.6 0.6l2.2 1zm-28.2 12.1l-13.9 6h27.8zm34.6 6l-3.1-8.6l-12.6-5.5l-8.6 3.6l-0.3 0.3q-0.3 0.1-0.6 0.1l-1.7 0.8l21.6 9.3zm-13-23.8c-0.4 0.8-0.8 1.6-1.3 2.4l5.4-2.4zm-25.9-13.5c0 8.6 4.2 16.5 10.6 22.5q1.4 1.5 3.1 2.7c7.9-5.9 13.7-15.3 13.7-25.2c0-6.5-4.5-12.1-10.8-13.5c-6.3-1.3-12.7 1.9-15.4 7.8c-0.8 1.8-1.2 3.7-1.2 5.7zm-3 13.5l-0.3 0.9l7.1 3.1q-1.3-1.9-2.3-4z" /><path fill-rule="evenodd" class="s1" d="m38.4 53.1c-1.1-0.4-1.8-1.4-1.9-2.6v-2.7c0-1.5 1-2.9 2.4-3.4l1.7-3.9c0.7-1.7 2.3-2.8 4.2-2.8h5.5c1.8 0 3.4 1.1 4.2 2.8l1.6 3.9c1.4 0.5 2.4 1.9 2.4 3.4v2.7c0 1.2-0.8 2.2-1.9 2.6v2.9c0 1-0.8 1.8-1.8 1.8h-1.8c-1 0-1.8-0.8-1.8-1.8v-2.7h-7.3v2.7c0 1-0.9 1.8-1.9 1.8h-1.8c-1 0-1.8-0.8-1.8-1.8zm3.6 0.2h-1.8v2.7h1.8zm12.8 0h-1.8v2.8h1.8zm-13.8-9.2h13l-1.2-2.9c-0.5-1-1.5-1.6-2.5-1.6h-5.5c-1.1 0-2.1 0.6-2.6 1.6zm-2.6 3.7h3.7c0.5 0 0.9 0.4 0.9 0.9c0 0.5-0.4 0.9-0.9 0.9h-3.7v0.9c0 0.5 0.4 0.9 0.9 0.9h16.5c0.5 0 0.9-0.4 0.9-0.9v-0.9h-3.7c-0.5 0-0.9-0.4-0.9-0.9c0-0.5 0.4-0.9 0.9-0.9h3.7c0-1-0.8-1.9-1.8-1.9h-14.7c-1 0-1.8 0.9-1.8 1.9z" /><path class="s1" d="m44.8 48.7c0-0.5 0.4-0.9 0.9-0.9h3.6c0.5 0 1 0.4 1 0.9c0 0.5-0.5 0.9-1 0.9h-3.6c-0.5 0-0.9-0.4-0.9-0.9z" /></g></svg>