<svg version="1.2" xmlns="http://www.w3.org/2000/svg" viewBox="0 0 181 101" width="181" height="101"><defs><clipPath clipPathUnits="userSpaceOnUse" id="cp1"><path d="m-721-156h960v601h-960z" /></clipPath></defs><style>.s0{fill:none;stroke:#ffffff;stroke-width:1.4}.s1{fill:#fdd395}.s2{fill:#fdd395;stroke:#ffffff;stroke-width:1.4}.s3{fill:#fbb040}.s4{fill:none;stroke:#ffffff;stroke-width:.8}.s5{fill:#f8f2da}.s6{fill:#fca0a0}.s7{fill:#37305e}.s8{fill:#261c42}.s9{fill:#e7e7e7}.s10{fill:#ffffff}.s11{fill:#0a3442}.s12{fill:none;stroke:#121e35;stroke-linecap:round;stroke-width:1.1}.s13{fill:#121e35}.s14{fill:#ea8c8c}.s15{fill:none;stroke:#121e35;stroke-linecap:round;stroke-width:1}.s16{fill:#f29891}.s17{fill:#c9dde3}.s18{fill:none;stroke:#282828;stroke-linecap:round;stroke-width:1.2}.s19{fill:none;stroke:#aabfc5;stroke-linecap:round;stroke-width:1.1}.s20{fill:none;stroke:#131313;stroke-linecap:round;stroke-width:.7}.s21{fill:#ffe6e9}.s22{fill:none;stroke:#131313;stroke-linecap:round;stroke-width:.8}.s23{fill:none;stroke:#ffffff;stroke-width:1.2}</style><g clip-path="url(#cp1)"><path class="s0" d="m25.7 9.2h122" /><path class="s0" d="m25.7 4c0-1.6 1.2-2.8 2.8-2.8h116.4c1.6 0 2.8 1.2 2.8 2.8v69.9c0 1.6-1.2 2.8-2.8 2.8h-116.4c-1.6 0-2.8-1.2-2.8-2.8z" /><path class="s0" d="m33.7 5.3c0 0.6-0.5 1.1-1.1 1.1c-0.6 0-1.1-0.5-1.1-1.1c0-0.6 0.5-1.1 1.1-1.1c0.6 0 1.1 0.5 1.1 1.1z" /><path class="s0" d="m38.1 5.3c0 0.6-0.5 1.1-1.1 1.1c-0.7 0-1.2-0.5-1.2-1.1c0-0.6 0.5-1.1 1.2-1.1c0.6 0 1.1 0.5 1.1 1.1z" /><path class="s0" d="m42.4 5.3c0 0.6-0.5 1.1-1.1 1.1c-0.6 0-1.1-0.5-1.1-1.1c0-0.6 0.5-1.1 1.1-1.1c0.6 0 1.1 0.5 1.1 1.1z" /><g style="opacity: .3"><path class="s1" d="m2.9 38.6c0-1.3 1-2.4 2.3-2.4h22.1c1.3 0 2.3 1.1 2.3 2.4v11.5c0 1.3-1 2.4-2.3 2.4h-22.1c-1.3 0-2.3-1.1-2.3-2.4z" /><path class="s2" d="m2.9 38.6c0-1.3 1-2.4 2.3-2.4h22.1c1.3 0 2.3 1.1 2.3 2.4v11.5c0 1.3-1 2.4-2.3 2.4h-22.1c-1.3 0-2.3-1.1-2.3-2.4z" /></g><g style="opacity: .3"><path class="s1" d="m135.6 24.2c0-1.4 1.1-2.5 2.6-2.5h30.6c1.4 0 2.6 1.1 2.6 2.5v20.9c0 1.4-1.2 2.5-2.6 2.5h-30.6c-1.5 0-2.6-1.1-2.6-2.5z" /><path class="s2" d="m135.6 24.2c0-1.4 1.1-2.5 2.6-2.5h30.6c1.4 0 2.6 1.1 2.6 2.5v20.9c0 1.4-1.2 2.5-2.6 2.5h-30.6c-1.5 0-2.6-1.1-2.6-2.5z" /></g><path class="s3" d="m96.1 14.9c0-0.5 0.4-1 1-1h18.4c0.6 0 1.1 0.5 1.1 1v4c0 0.5-0.5 1-1.1 1h-18.4c-0.6 0-1-0.5-1-1z" /><path class="s4" d="m98.9 16h13.8" /><path class="s4" d="m98.9 17.5h5.7" /><path class="s3" d="m101.3 19.2l-3 2.3v-2.3z" /><g style="opacity: .3"><path class="s1" d="m179.7 69.4h-20.3c-0.5 0-0.9-0.5-0.9-1c0-0.5 0.4-1 0.9-1h20.3c0.6 0 1 0.5 1 1c0 0.5-0.4 1-1 1z" /><path class="s1" d="m0.5 67.2c0-1.4 1.1-2.5 2.5-2.5h0.9c1.3 0 2.4 1.1 2.4 2.5v0.7c0 1.4-1.1 2.5-2.4 2.5h-0.9c-1.4 0-2.5-1.1-2.5-2.5z" /></g><path class="s5" d="m139 48l-9.4 1.1c-0.2-3.4-0.4-6.5-0.3-8.4c0.3-2.6 2.6-4.5 5.2-4.2c2.3 0.3 4.1 2.4 4 4.8z" /><path class="s6" d="m139.9 59.3c-0.1 2.7-2.2 4.8-4.9 4.8c-2.9 0-5.2-2.5-4.9-5.4c0.2-2.5-0.2-5.1-0.5-9.6l9.4-1.1z" /><path class="s6" d="m114.6 46.2l21.6 10.8c2.4 1.4 3.1 4 1.9 6c-1.3 2-4 2.6-5.9 1.2l-19.6-14.1z" /><path class="s6" d="m108.6 46c0.7-2.2 3.1-3.4 5.4-2.7c2.2 0.8 3.4 3.2 2.6 5.4c-0.7 2.2-3.1 3.4-5.4 2.7c-2.2-0.8-3.4-3.2-2.6-5.4z" /><path class="s6" d="m111.6 43.5c0 0-0.2-1.7 2-1.1c2.1 0.5 4.1 2.2 3 6.3z" /><path class="s7" d="m115.3 36l-1.7 11.9c-0.1 0.3-0.3 0.5-0.6 0.4l-4.5-1.1c-0.3 0-0.5-0.3-0.4-0.6l1.7-11.8c0.1-0.3 0.3-0.5 0.6-0.4l4.5 1c0.3 0.1 0.5 0.4 0.4 0.6z" /><path class="s8" d="m115.8 36.1l-1.8 11.9c0 0.3-0.3 0.5-0.5 0.4l-4.6-1.1c-0.2 0-0.4-0.3-0.4-0.6l1.8-11.8c0-0.3 0.3-0.5 0.5-0.4l4.6 1c0.2 0.1 0.4 0.4 0.4 0.6z" /><path class="s9" d="m113.7 46.4l-4-1l1.4-9.7l4 1z" /><path class="s10" d="m115.1 36.7l-1.4 9.7l-2.6-10.7z" /><path class="s6" d="m115.6 45.2l-1 3.7c-1.1-1.1-0.9-3.4-0.9-3.4l-1.6-1.6c-0.3-0.2-0.4-0.7-0.2-1c0.2-0.4 0.6-0.7 1-0.6c1 0.1 1.9 0.5 1.9 0.5z" /><path class="s11" d="m145.3 61.1l-6.4 31.1q-7.1-0.3-14.3-0.4q0.1-0.6 0.2-1.2c4.4-26.4 7.1-32.3 7.1-32.3l10-2.2z" /><path class="s11" d="m153.6 92.7q-7.9-0.3-15.9-0.6l-3.2-34.1l12.2-0.4c0 0 6.5 6.9 6.8 19.6c0.1 3.9 0.1 9.4 0.1 15.5z" /><path class="s12" d="m132.3 69.1l3.7 3.2l1.7 19.8" /><path class="s5" d="m140.3 35l6.4 0.1c1.1 0.1 2 1.4 2 2.5l-1 20.5l-15.8 0.2l-0.9-19.8c-0.1-0.6 0.3-1.2 0.8-1.4l3.5-1.5z" /><path class="s12" d="m131.4 42.8c0 0-1.6 2.1 0.1 6.1" /><path class="s6" d="m160.8 56.5c0.9 2.6-0.4 5.3-2.9 6.3c-2.7 1.1-5.7-0.4-6.5-3.1c-0.8-2.5-2.9-6.9-4.9-10.9l8.4-4.5z" /><path class="s5" d="m154.9 44.3l-8.4 4.5c-1.4-3.1-1.2-2.8-1.8-4.5c-0.7-2.5-0.8-8.4 1.7-9c2.3-0.7 4.7 0.6 5.5 2.9z" /><path class="s12" d="m146.5 48.8l-1.9-4.5" /><path class="s6" d="m134.4 54.4l22.2 0.5c2.4 0.1 4.1 2.1 3.9 4.5c-0.2 2.4-2.4 4-4.8 3.7l-21.1-3.7z" /><path class="s6" d="m130 57.1c-0.3-2.3 1.3-4.4 3.7-4.7c2.3-0.3 4.4 1.3 4.7 3.6c0.3 2.3-1.3 4.5-3.6 4.8c-2.3 0.3-4.5-1.3-4.8-3.7z" /><path class="s6" d="m131.6 53.5c0 0-0.9-1.4 1.3-1.9c2.2-0.4 4.6 0.2 5.5 4.4z" /><path class="s13" d="m148.3 28.5c0 2.8-2.3 5-5.1 5c-2.8-0.1-5-2.3-5-5.1c0-2.8 2.3-5 5.1-5c2.8 0 5 2.3 5 5.1z" /><path class="s13" d="m127.6 16c0 0 8.1-4.8 13.7 0.2c3.4 3 2.1 8-2.4 11.1c-4.4 2.9-6-10.8-6-10.8z" /><path class="s13" d="m131.3 25c0 0-6.2 0.1-6.6-3.8c-0.6-6 7.4-6.5 7.4-6.5z" /><path class="s14" d="m130.6 25.6c0.4 1.1-0.2 2.3-1.3 2.6c-1.1 0.4-2.3-0.3-2.6-1.4c-0.4-1.1 0.2-2.2 1.3-2.6c1.1-0.3 2.3 0.3 2.6 1.4z" /><path class="s6" d="m138 27.5l2.7 7.7c0.3 1.5-1.2 2.8-2.7 3.3c-1.7 0.5-2.7-0.2-3.2-2l-1.5-4.9z" /><path class="s6" d="m140.8 34.8l3.2 0.3c-1 2.4-1.5 6.1-7.8 5.9c-5.3-0.2-2.5-4.8-2.5-4.8l1.7-0.8z" /><path class="s13" d="m133.1 31l5.4-3.3c0 5.8-4.4 6.5-4.4 6.5z" /><path class="s6" d="m135 32c-3 0.7-6-1-6.6-3.5l-1.6-5.7c-0.8-3 0.9-6.1 3.9-7.1c3.1-0.9 6.9 0.6 7.8 3.7l1.2 4.6c0.9 3.6-1.2 6.9-4.7 8z" /><path class="s13" d="m140.6 19.2l-2.5 5c0 0-3.5-2-3.5-5.6c0-3 6 0.6 6 0.6z" /><path class="s13" d="m135.6 19.2c0 0-7.2-0.6-9.5 2.8c0 0-0.2-7 7.5-7.5c7.8-0.4 5.6 5.1 5.6 5.1z" /><path class="s12" d="m131.9 27.1l-0.7 0.1l-0.1-1.1" /><path class="s13" d="m129.8 25.5c0.1 0.3-0.1 0.6-0.4 0.7c-0.3 0-0.6-0.1-0.7-0.4c0-0.3 0.1-0.6 0.4-0.7c0.3-0.1 0.6 0.1 0.7 0.4z" /><path class="s13" d="m134.2 24.3c0 0.3-0.1 0.6-0.4 0.7c-0.3 0-0.6-0.1-0.7-0.4c-0.1-0.3 0.1-0.6 0.4-0.7c0.3-0.1 0.6 0.1 0.7 0.4z" /><path class="s13" d="m132.9 21.9c1.3-0.1 1.8 0.7 1.8 0.7l-3.2 0.4c0 0 0.1-0.9 1.4-1.1z" /><path class="s13" d="m129.9 23.5l-2.3 0.7c0 0 0.1-0.9 1-1.2c0.9-0.3 1.3 0.5 1.3 0.5z" /><path class="s10" d="m131 28.4l3.3-0.7c0 0-0.3 1.5-2 1.6c-1.2 0-1.3-0.9-1.3-0.9z" /><path class="s6" d="m141.2 23.4c0.1 1.1-0.7 2-1.7 2.1c-1.1 0.1-2-0.7-2.1-1.8c-0.1-1.1 0.7-2 1.8-2.1c1.1 0 2 0.8 2 1.8z" /><path class="s15" d="m138.7 24.2c0 0-0.1-1.4 1.2-1.3" /><path class="s11" d="m57 70.3l4.6 21.9l-11.9-0.8l-1.9-10.6l-2.8 0.5v10.4l-13.2-0.3v-14.6z" /><path class="s16" d="m30 52.6l-8.5 32.8l-5.2-0.6l4.8-31.9z" /><path class="s16" d="m21.5 85.4c1 3.4-3 3.7-3 3.7h-10.3c-0.4-2.3 8.1-4.3 8.1-4.3z" /><path class="s17" d="m30.3 58.4l-13-4.7c5.8-15.7 16.4-14.8 16.4-14.8z" /><path class="s6" d="m75.2 27.7c-0.1 7.8-3.4 21.5-3.4 21.5l-5.4-6.1l4.6-15.5z" /><path class="s6" d="m68.8 21.1c-0.1-0.1 7.2-0.3 7.2-0.3c0 0 0.5 5-0.5 6.8c-0.6 1-4.7 0.5-4.7 0.5c0 0-1.9-7-2-7z" /><path class="s6" d="m70.8 28.1c-0.1-0.4-2.9-3.5-3.9-4.7c-0.2-0.3-0.1-0.8 0.2-1c0.2-0.1 0.6-0.3 0.9 0l2.7 2.1z" /><path class="s6" d="m69.3 24l-1.1-5.8c0-0.4 0.2-0.8 0.6-0.9c0.3 0 0.7 0.2 0.7 0.5l1.2 4.2z" /><path class="s6" d="m70.7 21.2l-0.1-4.5c0-0.4 0.3-0.7 0.7-0.7c0.3 0 0.6 0.2 0.6 0.5l0.7 4.9z" /><path class="s6" d="m72.7 21.7l0.4-4.6c0-0.4 0.4-0.7 0.8-0.7c0.4 0 0.7 0.3 0.6 0.7v4.2z" /><path class="s6" d="m74.5 21.3l0.9-3.5c0-0.3 0.3-0.5 0.6-0.5c0.3 0 0.5 0.3 0.5 0.6l-0.5 2.9z" /><path class="s18" d="m69.5 23.5c0 0 2.1-1.1 3.5 1.7" /><path class="s6" d="m72.1 45.2c0 0 0.6 6-2.8 6.5c-3.4 0.6-10.9-4.1-10.9-4.1l-3.4-11.8l13 7.2z" /><path class="s17" d="m45.9 36.7c0 0 7.2-4.8 18.4 2.7l-6.6 10.4l-6.5-0.6z" /><path class="s17" d="m33.7 38.9l12.2-2.2l9.1 5.9l4.5 30.5l-29 4.2l-1.6-21z" /><path class="s19" d="m29 58l-0.8-7.1" /><path class="s19" d="m56.1 49.6l-1.1-6" /><path class="s6" d="m35.9 37.3l-1.3-8.2l7.5-1.3l1.4 8.2l2.4 0.7c0 0 0 3.5-5.5 4.5c-5.6 0.9-6.7-2.3-6.7-2.3z" /><path class="s13" d="m42.6 30.4c0 0-0.2 3.2-2.9 4.1c-3.2 0.9-4.7-2.8-4.7-2.8c0 0 1.7 1.5 4 1.2c2.5-0.4 3.6-2.5 3.6-2.5z" /><path class="s13" d="m33.5 15.9c0 0 1.4-3.4 5.9-2.8c3.2 0.4 4.2 3 4.8 4.1q0.3 0.7 0.3 1.5l-0.6 5.6l-5.3-7.1l-4.4 0.8z" /><path class="s6" d="m43.9 24.3c0 0 0.4-1 1.7-0.7c1.2 0.4 0.9 3.3-0.8 3.8c0 0-0.6 0.2-1.2-0.2c0 0 0.3-2.1 0.3-2.9z" /><path class="s20" d="m45.4 24.7c0 0-1-0.3-1.5 1.3" /><path class="s6" d="m32.6 28.3c-0.5 0.5-1.1 0.5-1.1 0.5c-1.8-0.2-2.7-3.1-1.5-3.6c1.1-0.6 1.8 0.3 1.8 0.3c0.1 0.8 0.8 2.8 0.8 2.8z" /><path class="s20" d="m30.3 26.2c0 0 1-0.5 1.8 0.9" /><path class="s6" d="m43.7 21.5c0.2 1.8 0.4 5.4-0.5 7.7c-0.8 2.1-2 3.1-4.2 3.4c-2.1 0.3-4.1-0.2-5.7-2.7c-1.5-2.5-1.9-7.1-1.9-7.1c0 0-0.6-6.2 5.5-6.8c6.4-0.6 6.8 5.5 6.8 5.5z" /><path class="s13" d="m31.8 25.5l-1.7-5.3q-0.1-0.7 0.1-1.4c0.4-1 1.5-3.4 3.3-2.9l0.7 2.1c0 0-2.2 0.6-2.8 3.7z" /><path class="s13" d="m33.5 17.1c0 0 2.6-1.8 6-1.7c3.4 0 4.6 5.2 4.6 5.2c-7.2 1.1-11.3-2.9-11.3-2.9z" /><path class="s13" d="m34.2 18c0 0-0.7 2.4-2.9 4.5c0 0-0.9-4.9 2.9-4.5z" /><path class="s13" d="m40.3 23.5c0.3 0 0.6 0.2 0.6 0.5c0.1 0.3-0.1 0.6-0.4 0.6c-0.3 0.1-0.6-0.1-0.7-0.4c0-0.3 0.2-0.6 0.5-0.7z" /><path class="s13" d="m35.2 24.3c0.3 0 0.6 0.2 0.7 0.5c0 0.3-0.2 0.6-0.5 0.6c-0.3 0.1-0.6-0.1-0.6-0.4c-0.1-0.3 0.2-0.6 0.4-0.7z" /><path class="s13" d="m36 22.3l-3.5 1.5c0 0 0-1.1 1.4-1.7c1.5-0.6 2.1 0.2 2.1 0.2z" /><path class="s13" d="m40.5 21.2c1.5 0.1 1.8 1.1 1.8 1.1l-3.8-0.4c0 0 0.4-0.9 2-0.7z" /><path class="s15" d="m38.6 26.7l-0.4 0.1c-0.2 0.1-0.4 0-0.4-0.2l-0.2-0.8" /><path class="s10" d="m36.5 28.4l3.9-0.9c0 0 0.3 1.5-1.6 1.9c-2 0.4-2.3-1-2.3-1z" /><path class="s1" d="m0 88.7h171.7v4.3h-171.7z" /><path class="s6" d="m77.1 88.7h-10.1c-2.3 0-4.1-1.8-4.1-4.1c0-2.2 1.8-4 4.1-4h8.5z" /><path class="s6" d="m63.8 82l5.4-8.7l7.9 1.1l-1.2 10.2z" /><path class="s12" d="m73.4 80.6h-6.4" /><path class="s6" d="m102.4 80.6h8.5c2.3 0 4.1 1.8 4.1 4c0 2.3-1.8 4.1-4.1 4.1h-10z" /><path class="s6" d="m102 84.6l-1.1-10.2l6.4-2.8l6.7 10.3z" /><path class="s12" d="m102.9 80.6h8" /><path class="s11" d="m103.5 63.1c0 0 0 18 0 18.4c0 0.5-30.1 0-30.1 0v-17.3c6.3-6.2 14.8-6.2 14.8-6.2c9.1 0 15.3 5.1 15.3 5.1z" /><path class="s11" d="m75.3 80.6c-9.1-0.8-10.1-5.5-10.1-5.5c4.9-8.3 9.5-12 9.5-12z" /><path class="s11" d="m103.5 63.1c0 0 4.6 3.7 9.5 12c0 0-1 4.7-10.1 5.5z" /><path class="s21" d="m73.4 71.1c0-1.3 1.1-2.4 2.4-2.4h25.3c1.3 0 2.4 1.1 2.4 2.4v15.2c0 1.3-1.1 2.4-2.4 2.4h-25.3c-1.3 0-2.4-1.1-2.4-2.4z" /><path class="s10" d="m88.5 80.6c-1.1 0-1.9-0.9-1.9-1.9c0-1 0.8-1.8 1.9-1.8c1 0 1.8 0.8 1.8 1.8c0 1-0.8 1.9-1.8 1.9z" /><path class="s6" d="m85.4 54.4h5.9v6.6h-5.9z" /><path class="s13" d="m88.4 55.2c2.5 0 2.9-1 2.9-1c0 0 0.1 3.3-3.2 3.2c-2.4-0.1-3-3.4-3-3.4c0 0 0.5 1.2 3.3 1.2z" /><path class="s13" d="m88.4 51.7c-4.5 0-8.2-3.7-8.2-8.4c0-4.6 3.7-8.4 8.2-8.4c4.5 0 8.2 3.8 8.2 8.4c0 4.7-3.7 8.4-8.2 8.4z" /><path class="s6" d="m95.5 46.4c0 0 0.6-0.9 1.8-0.5c1.2 0.5 0.7 3.4-1.2 3.8c0 0-0.6 0.2-1.1-0.3c0 0 0.4-2.2 0.5-3z" /><path class="s22" d="m97 47c0 0-1-0.4-1.7 1.1" /><path class="s6" d="m82 49.4c-0.5 0.5-1.2 0.3-1.2 0.3c-1.8-0.4-2.3-3.3-1.1-3.8c1.2-0.4 1.8 0.5 1.8 0.5c0.1 0.8 0.5 3 0.5 3z" /><path class="s22" d="m79.9 47c0 0 1.1-0.4 1.8 1.1" /><path class="s6" d="m95.6 43.8c0 1.9-0.2 5.9-1.4 8.3c-1.2 2.2-3.1 3.4-5.6 3.4c-2.5 0.1-4.4-0.8-5.8-3.7c-1.5-2.9-1.5-7.9-1.5-7.9c0 0 0-6.8 7.1-6.8c7.4 0 7.2 6.7 7.2 6.7z" /><path class="s13" d="m81.5 46.4c0 0 1.5-3.3 0.2-5.7c0 0-1.2 3.8-0.2 5.7z" /><path class="s13" d="m95.5 46.4c0 0-1.5-3.3-0.2-5.7c0 0 1.2 3.8 0.2 5.7z" /><path class="s13" d="m92 37.5c0 0-0.6 4 3.5 5.8c0 0-0.2-4.7-3.5-5.8z" /><path class="s13" d="m93 38c0 0-0.6 4-6.1 3.1c-4.2-0.7-5.5 2.5-5.5 2.5c0 0-0.7-6 6.1-7.2c0 0 3.5 0 5.5 1.6z" /><path class="s13" d="m86 47.1c0 0.4-0.3 0.6-0.7 0.6c-0.3 0-0.6-0.2-0.6-0.6c0-0.4 0.3-0.6 0.6-0.6c0.4 0 0.7 0.2 0.7 0.6z" /><path class="s13" d="m91.3 47.7c-0.4 0-0.7-0.2-0.7-0.6c0-0.4 0.3-0.6 0.7-0.6c0.3 0 0.6 0.2 0.6 0.6c0 0.4-0.3 0.6-0.6 0.6z" /><path class="s12" d="m88.8 49.6l-0.4 0.1c-0.2 0.1-0.4-0.1-0.4-0.3v-0.9" /><path class="s13" d="m87.2 45.1l-3.9 0.5c0 0 0.3-1.1 1.9-1.2c1.6-0.2 2 0.7 2 0.7z" /><path class="s13" d="m91.5 44.4c1.6 0.1 1.9 1.2 1.9 1.2l-3.9-0.5c0 0 0.4-0.9 2-0.7z" /><path class="s23" d="m86.6 49c-1.1 1-2.8 1-3.8 0c-1.1-1.1-1.1-2.8 0-3.8c1-1 2.7-1 3.8 0c1 1 1 2.7 0 3.8z" /><path class="s23" d="m94.8 47.7c-0.3 1.4-1.7 2.3-3.2 2c-1.4-0.4-2.3-1.8-2-3.2c0.4-1.5 1.8-2.3 3.2-2c1.5 0.3 2.4 1.8 2 3.2z" /><path class="s23" d="m87.3 47.3c0 0 1-1.4 2.3 0" /><path class="s12" d="m90.6 50.9c0 0-0.7 0.5-2.3 0.5c-1.7 0-2.1-0.5-2.1-0.5" /><path class="s6" d="m96.8 59.5c0 0-0.7 4.5-8.8 4.5c-8.2 0-8.1-4.1-8.1-4.1c4.7-2 8.3-1.9 8.3-1.9c3.4-0.3 8.6 1.5 8.6 1.5z" /><path class="s13" d="m91.3 37.8c-2.9 0-5.3-2.4-5.3-5.4c0-2.9 2.4-5.3 5.3-5.3c3 0 5.4 2.4 5.4 5.3c0 3-2.4 5.4-5.4 5.4z" /></g></svg>