<svg version="1.2" xmlns="http://www.w3.org/2000/svg" viewBox="0 0 14 10" width="14" height="10"><defs><clipPath clipPathUnits="userSpaceOnUse" id="cp1"><path d="m-53-205h960v1360h-960z" /></clipPath></defs><style>.s0{fill:#ffffff}</style><g clip-path="url(#cp1)"><path fill-rule="evenodd" class="s0" d="m1 1.9c0-0.8 0.6-1.4 1.4-1.4h9.7c0.8 0 1.4 0.6 1.4 1.4v5.7c0 0.8-0.6 1.4-1.4 1.4h-9.7c-0.8 0-1.4-0.6-1.4-1.4zm11.4 3.7v-1.8c-1.2-0.2-2-1.1-2.3-2.2h-5.7c-0.3 1.1-1.1 2-2.3 2.2v1.8c1.2 0.3 2 1.1 2.3 2.3h5.7c0.3-1.2 1.1-2 2.3-2.3zm-10.3 1.2v0.8c0 0.1 0.2 0.3 0.3 0.3h0.8c-0.2-0.5-0.6-0.9-1.1-1.1zm9.2-5.2c0.2 0.5 0.6 0.9 1.1 1.1v-0.8c0-0.2-0.2-0.3-0.3-0.3zm-8.2 0h-0.7c-0.2 0-0.3 0.1-0.3 0.3v0.8c0.5-0.2 0.9-0.6 1-1.1zm9.2 5.2c-0.5 0.2-0.9 0.6-1 1.1h0.7c0.2 0 0.3-0.2 0.3-0.3c0 0 0-0.8 0-0.8zm-5.1 0.2c-1.3 0-2.3-1-2.3-2.3c0-1.2 1-2.2 2.3-2.2c1.3 0 2.3 1 2.3 2.2c0 1.3-1 2.3-2.3 2.3zm0-1.1c0.6 0 1.1-0.5 1.1-1.2c0-0.6-0.5-1.1-1.1-1.1c-0.6 0-1.1 0.5-1.1 1.1c0 0.7 0.5 1.2 1.1 1.2z" /></g></svg>